<?xml version="1.0" encoding="utf-8"?>
<!-- Generator: Adobe Illustrator 19.0.0, SVG Export Plug-In . SVG Version: 6.00 Build 0)  -->
<svg version="1.1" id="レイヤー_1" xmlns="http://www.w3.org/2000/svg" xmlns:xlink="http://www.w3.org/1999/xlink" x="0px"
	 y="0px" width="750px" height="500px" viewBox="-104 31 750 500" style="enable-background:new -104 31 750 500;"
	 xml:space="preserve">
<style type="text/css">
	.st0{fill:#C60B1E;stroke:#000000;stroke-width:2;stroke-miterlimit:10;}
	.st1{fill:#FFC400;stroke:#000000;stroke-width:2;stroke-miterlimit:10;}
	.st2{fill:#AD1519;stroke:#000000;stroke-width:0.26;stroke-linejoin:round;}
	.st3{fill:#C8B100;stroke:#000000;stroke-width:0.26;}
	.st4{fill:#C8B100;}
	.st5{fill:#C8B100;stroke:#000000;stroke-width:0.3;}
	.st6{fill:none;stroke:#000000;stroke-width:0.26;}
	.st7{fill:#C8B100;stroke:#000000;stroke-width:0.26;stroke-linejoin:round;}
	.st8{fill:#AD1519;stroke:#000000;stroke-width:0.26;}
	.st9{fill:#058E6E;stroke:#000000;stroke-width:0.26;}
	.st10{fill:#FFFFFF;stroke:#000000;stroke-width:0.26;}
	.st11{fill:none;stroke:#000000;stroke-width:0.01;}
	.st12{fill:none;stroke:#000000;stroke-width:0.02;}
	.st13{fill:none;stroke:#000000;stroke-width:0.03;}
	.st14{fill:none;stroke:#000000;stroke-width:0.04;}
	.st15{fill:none;stroke:#000000;stroke-width:0.05;}
	.st16{fill:none;stroke:#000000;stroke-width:0.06;}
	.st17{fill:none;stroke:#000000;stroke-width:0.07;}
	.st18{fill:none;stroke:#000000;stroke-width:0.08;}
	.st19{fill:none;stroke:#000000;stroke-width:0.09;}
	.st20{fill:none;stroke:#000000;stroke-width:0.1;}
	.st21{fill:none;stroke:#000000;stroke-width:0.11;}
	.st22{fill:none;stroke:#000000;stroke-width:0.12;}
	.st23{fill:none;stroke:#000000;stroke-width:0.13;}
	.st24{fill:none;stroke:#000000;stroke-width:0.14;}
	.st25{fill:none;stroke:#000000;stroke-width:0.15;}
	.st26{fill:none;stroke:#000000;stroke-width:0.18;}
	.st27{fill:#005BBF;stroke:#000000;stroke-width:0.39;}
	.st28{fill:#CCCCCC;stroke:#000000;stroke-width:0.39;}
	.st29{fill:#C8B100;stroke:#000000;stroke-width:0.39;stroke-linejoin:round;}
	.st30{fill:#C8B100;stroke:#000000;stroke-width:0.39;}
	.st31{fill:none;stroke:#000000;stroke-width:0.39;}
	.st32{fill:#AD1519;stroke:#000000;stroke-width:0.39;}
	.st33{fill:#AD1519;stroke:#000000;stroke-width:0.39;stroke-linejoin:round;}
	.st34{fill:#AD1519;stroke:#000000;stroke-width:0.27;}
	.st35{fill:none;stroke:#000000;stroke-width:0.26;stroke-linecap:round;}
	.st36{fill:none;stroke:#000000;stroke-width:0.21;}
	.st37{fill:#FFFFFF;stroke:#000000;stroke-width:0.21;}
	.st38{fill:#005BBF;stroke:#000000;stroke-width:0.26;}
	.st39{fill:#FFFFFF;stroke:#000000;stroke-width:0.39;}
	.st40{fill:none;stroke:#000000;stroke-width:0.23;}
	.st41{fill:none;stroke:#000000;stroke-width:0.28;}
	.st42{fill:none;stroke:#000000;stroke-width:0.33;}
	.st43{fill:none;stroke:#000000;stroke-width:0.37;}
	.st44{fill:none;stroke:#000000;stroke-width:0.42;}
	.st45{fill:none;stroke:#000000;stroke-width:0.46;}
	.st46{fill:none;stroke:#000000;stroke-width:0.51;}
	.st47{fill:none;stroke:#000000;stroke-width:0.56;}
	.st48{fill:none;stroke:#000000;stroke-width:0.6;}
	.st49{fill:none;stroke:#000000;stroke-width:0.63;}
	.st50{fill:none;stroke:#000000;stroke-width:0.68;}
	.st51{fill:none;stroke:#000000;stroke-width:0.73;}
	.st52{fill:none;stroke:#000000;stroke-width:0.77;}
	.st53{fill:none;stroke:#000000;stroke-width:0.91;}
	.st54{fill:#058E6E;stroke:#000000;stroke-width:0.39;}
	.st55{fill:#CCCCCC;stroke:#000000;stroke-width:0.52;}
	.st56{fill:#FFD691;stroke:#000000;stroke-width:0.52;}
	.st57{fill:#058E6E;stroke:#000000;stroke-width:0.52;}
	.st58{fill:#AD1519;stroke:#000000;stroke-width:0.52;}
	.st59{fill:#C8B100;stroke:#000000;stroke-width:0.52;}
	.st60{fill:#C8B100;stroke:#C8B100;stroke-width:0.26;}
	.st61{fill:#058E6E;}
	.st62{fill:#C8B100;stroke:#000000;stroke-width:0.46;}
	.st63{fill:#0039F0;}
	.st64{fill:#DB4446;stroke:#000000;stroke-width:0.39;}
	.st65{fill:#ED72AA;stroke:#000000;stroke-width:0.39;}
	.st66{stroke:#000000;stroke-width:0.26;}
	.st67{stroke:#000000;stroke-width:0.05;}
	.st68{fill:#AD1519;stroke:#000000;stroke-width:0.61;}
	.st69{fill:#005BBF;stroke:#000000;stroke-width:0.61;}
	.st70{fill:#C8B100;stroke:#000000;stroke-width:0.34;stroke-linejoin:round;}
	.st71{fill:#C8B100;stroke:#000000;stroke-width:0.34;}
</style>
<rect x="-104" y="31" class="st0" width="750" height="500"/>
<rect x="-104" y="156" class="st1" width="750" height="250"/>
<g id="coa">
	<g id="supporters">
		<g id="crown_left">
			<path class="st2" d="M63.99,253.24c0,0-0.51,0-0.79-0.16s-1.13-0.96-1.13-0.96l-0.68-0.49l-0.62-0.85c0,0-0.73-1.18-0.4-2.09
				c0.34-0.91,0.91-1.23,1.42-1.5c0.51-0.26,1.58-0.59,1.58-0.59s0.85-0.37,1.13-0.42c0.28-0.06,1.3-0.32,1.3-0.32
				s0.28-0.16,0.56-0.27c0.29-0.11,0.68-0.11,0.91-0.16c0.22-0.06,0.79-0.24,1.13-0.26c0.52-0.02,1.36,0.1,1.64,0.1
				s1.24,0.05,1.64,0.05c0.39,0,1.8-0.11,2.2-0.11c0.39,0,0.68-0.05,1.13,0c0.45,0.06,1.24,0.32,1.47,0.43s1.58,0.59,2.09,0.75
				s1.75,0.37,2.32,0.64c0.56,0.27,0.91,0.72,1.19,1.1c0.28,0.37,0.34,0.78,0.45,1.05c0.11,0.26,0.11,0.84,0,1.11
				c-0.11,0.26-0.51,0.81-0.51,0.81l-0.62,1.02l-0.79,0.64c0,0-0.57,0.54-1.02,0.48c-0.45-0.04-5.03-0.86-7.97-0.86
				s-7.64,0.86-7.64,0.86L63.99,253.24L63.99,253.24z"/>
			<g>
				<ellipse class="st3" cx="71.66" cy="246.68" rx="1.38" ry="2.5"/>
				<ellipse class="st3" cx="71.68" cy="246.68" rx="0.64" ry="2.3"/>
				<ellipse class="st4" cx="71.68" cy="244.04" rx="0.93" ry="0.87"/>
				<path class="st5" d="M72.96,243.74v0.58h-2.53v-0.58h0.94v-1.32h-0.62v-0.57h0.62v-0.57h0.6v0.57h0.62v0.57h-0.62v1.32H72.96"/>
				<path class="st6" d="M71.94,243.2c0.495,0.129,0.784,0.609,0.646,1.072c-0.138,0.463-0.651,0.733-1.146,0.604
					s-0.784-0.609-0.646-1.072c0.087-0.293,0.332-0.522,0.646-0.604"/>
				<path class="st3" d="M71.68,253.08h-4.81l-0.11-1.18l-0.23-1.23l-0.23-1.53c-1.33-1.75-2.55-2.9-2.96-2.65
					c0.1-0.32,0.22-0.56,0.47-0.71c1.18-0.7,3.61,0.98,5.44,3.74c0.16,0.25,0.32,0.5,0.46,0.75h3.97c0.14-0.25,0.3-0.5,0.46-0.75
					c1.82-2.76,4.26-4.44,5.43-3.74c0.26,0.15,0.37,0.39,0.47,0.71c-0.41-0.24-1.62,0.9-2.96,2.65l-0.23,1.53l-0.23,1.23l-0.1,1.18
					H71.68L71.68,253.08z"/>
				<path class="st6" d="M63.55,246.44c0.91-0.53,3.02,1.14,4.73,3.74 M79.83,246.44c-0.91-0.53-3.01,1.14-4.73,3.74"/>
			</g>
			<g id="crown_pt1">
				<path class="st3" d="M64.58,255.25c-0.2-0.57-0.58-1.08-0.58-1.08c1.95-0.57,4.66-0.93,7.67-0.94c3.01,0.01,5.75,0.37,7.69,0.94
					c0,0-0.22,0.38-0.52,0.91c-0.17,0.3-0.39,0.81-0.38,0.81c-1.75-0.54-4.02-0.81-6.8-0.82c-2.79,0.01-5.46,0.35-6.86,0.86
					c0.02,0-0.1-0.32-0.23-0.68H64.58"/>
				<path class="st3" d="M71.67,257.73c2.43-0.01,5.11-0.38,6.1-0.63c0.66-0.2,1.05-0.49,0.98-0.84c-0.04-0.16-0.18-0.3-0.37-0.38
					c-1.46-0.47-4.07-0.8-6.71-0.8c-2.63,0-5.27,0.33-6.72,0.8c-0.19,0.08-0.33,0.22-0.37,0.38c-0.07,0.35,0.32,0.64,0.98,0.84
					C66.55,257.35,69.24,257.72,71.67,257.73z"/>
				<path class="st3" d="M79.48,253.08l-0.59-0.53c0,0-0.57,0.34-1.28,0.24c-0.7-0.11-0.93-0.97-0.93-0.97s-0.79,0.67-1.44,0.62
					c-0.65-0.06-1.07-0.62-1.07-0.62s-0.71,0.51-1.33,0.46c-0.62-0.06-1.21-0.83-1.21-0.83s-0.63,0.8-1.25,0.86
					c-0.62,0.05-1.13-0.54-1.13-0.54s-0.28,0.59-1.07,0.72s-1.47-0.62-1.47-0.62s-0.45,0.73-0.99,0.92
					c-0.54,0.18-1.24-0.27-1.24-0.27s-0.12,0.27-0.2,0.43s-0.31,0.19-0.31,0.19l0.18,0.47c1.93-0.56,4.56-0.91,7.53-0.91
					s5.67,0.35,7.61,0.92l0.2-0.54L79.48,253.08L79.48,253.08z"/>
				<path class="st3" d="M71.69,250.49l0.28,0.05c-0.05,0.12-0.06,0.24-0.06,0.38c0,0.58,0.5,1.05,1.12,1.05
					c0.49,0,0.91-0.31,1.06-0.73c0.01,0.01,0.11-0.38,0.15-0.38c0.03,0,0.03,0.41,0.05,0.41c0.07,0.53,0.55,0.89,1.1,0.89
					c0.62,0,1.11-0.47,1.11-1.06c0-0.04,0-0.08-0.01-0.12l0.35-0.35l0.19,0.44c-0.07,0.14-0.1,0.29-0.1,0.46
					c0,0.56,0.47,1.01,1.06,1.01c0.37,0,0.69-0.18,0.88-0.45l0.23-0.29v0.36c0,0.34,0.14,0.66,0.49,0.71c0,0,0.38,0.03,0.91-0.38
					c0.52-0.41,0.8-0.75,0.8-0.75l0.03,0.42c0,0-0.51,0.84-0.97,1.1c-0.25,0.15-0.64,0.31-0.95,0.25c-0.32-0.05-0.55-0.31-0.67-0.61
					c-0.23,0.14-0.51,0.22-0.8,0.22c-0.63,0-1.2-0.35-1.42-0.86c-0.29,0.31-0.69,0.5-1.16,0.5c-0.51,0-0.97-0.23-1.26-0.58
					c-0.28,0.27-0.67,0.43-1.09,0.43c-0.55,0-1.05-0.28-1.33-0.69c-0.29,0.41-0.78,0.69-1.34,0.69c-0.42,0-0.81-0.16-1.09-0.43
					c-0.29,0.35-0.75,0.58-1.25,0.58c-0.48,0-0.88-0.19-1.17-0.5c-0.22,0.51-0.79,0.86-1.42,0.86c-0.29,0-0.56-0.08-0.79-0.22
					c-0.12,0.3-0.35,0.56-0.68,0.61c-0.3,0.06-0.69-0.1-0.94-0.25c-0.47-0.26-1.02-1.1-1.02-1.1l0.07-0.42c0,0,0.29,0.34,0.81,0.75
					s0.91,0.38,0.91,0.38c0.34-0.05,0.49-0.37,0.49-0.71v-0.36l0.22,0.29c0.19,0.27,0.51,0.45,0.88,0.45c0.59,0,1.06-0.45,1.06-1.01
					c0-0.17-0.02-0.32-0.1-0.46l0.19-0.44l0.35,0.35c-0.01,0.04-0.01,0.08-0.01,0.12c0,0.59,0.49,1.06,1.11,1.06
					c0.55,0,1.03-0.36,1.11-0.89c0.01,0,0.01-0.41,0.04-0.41c0.05,0,0.14,0.39,0.16,0.38c0.14,0.42,0.56,0.73,1.06,0.73
					c0.61,0,1.11-0.47,1.11-1.05c0-0.14,0-0.26-0.05-0.38l0.29-0.05H71.69L71.69,250.49z"/>
				<path class="st7" d="M71.67,253.23c-3.01,0.01-5.72,0.37-7.67,0.94c-0.13,0.04-0.29-0.06-0.33-0.17
					c-0.04-0.13,0.05-0.28,0.18-0.32c1.95-0.6,4.73-0.98,7.82-0.98s5.88,0.38,7.83,0.98c0.13,0.04,0.22,0.19,0.18,0.32
					c-0.04,0.11-0.2,0.21-0.33,0.17C77.4,253.6,74.68,253.24,71.67,253.23z"/>
				<path class="st3" d="M61.43,252c-0.01,0.01-0.38-0.48-0.65-0.73c-0.2-0.18-0.68-0.33-0.68-0.33c0-0.08,0.28-0.28,0.58-0.28
					c0.18,0,0.35,0.07,0.45,0.2l0.04-0.2c0,0,0.24,0.05,0.35,0.32c0.12,0.29,0.05,0.72,0.05,0.72S61.52,251.9,61.43,252L61.43,252z"
					/>
				<path class="st3" d="M63.32,251.22l-0.11,0.66l-1.4,0.15l-0.21-0.12l0.04-0.23l1.06-0.87L63.32,251.22"/>
				<path class="st3" d="M61.45,251.75c0.12-0.12,0.36-0.09,0.53,0.06c0.18,0.15,0.24,0.38,0.12,0.5c-0.12,0.13-0.36,0.1-0.53-0.06
					C61.39,252.1,61.33,251.87,61.45,251.75z"/>
				<path class="st3" d="M64.02,251.88c-0.06-0.18,0-0.37,0.13-0.42c0.14-0.03,0.3,0.09,0.37,0.27c0.06,0.19,0,0.38-0.14,0.42
					C64.25,252.19,64.09,252.07,64.02,251.88z"/>
				<path class="st3" d="M64.67,251.04l0.51,0.48l1.22-0.66l0.09-0.21l-0.17-0.17l-1.4-0.12L64.67,251.04"/>
				<path class="st3" d="M66.08,248.76l-0.67,0.64l0.86,1.14l0.23,0.09l0.17-0.18l0.3-1.37L66.08,248.76"/>
				<path class="st3" d="M68.36,250.3l-0.26,0.63l-1.4-0.13l-0.18-0.16l0.1-0.22l1.22-0.64L68.36,250.3"/>
				<ellipse class="st3" cx="66.51" cy="250.65" rx="0.49" ry="0.47"/>
				<path class="st3" d="M68.87,250.95c-0.03-0.2,0.07-0.37,0.21-0.39s0.28,0.13,0.3,0.33c0.03,0.19-0.07,0.37-0.21,0.38
					C69.03,251.29,68.89,251.14,68.87,250.95z"/>
				<path class="st3" d="M69.78,250.24l0.4,0.57l1.34-0.42l0.14-0.18l-0.15-0.2l-1.33-0.39L69.78,250.24"/>
				<path class="st3" d="M71.66,248.15l-0.86,0.52l0.64,1.38l0.22,0.14l0.22-0.14l0.64-1.38L71.66,248.15"/>
				<path class="st3" d="M73.55,250.24l-0.39,0.57l-1.34-0.42l-0.14-0.18l0.14-0.2l1.34-0.39L73.55,250.24"/>
				<ellipse class="st3" cx="71.67" cy="250.21" rx="0.49" ry="0.47"/>
				<path class="st3" d="M74.5,250.95c0.02-0.2-0.08-0.37-0.22-0.39s-0.28,0.13-0.3,0.33c-0.02,0.19,0.07,0.37,0.21,0.38
					C74.33,251.29,74.47,251.14,74.5,250.95z"/>
				<path class="st3" d="M74.99,250.3l0.26,0.63l1.4-0.13l0.18-0.16l-0.1-0.22l-1.22-0.64L74.99,250.3"/>
				<path class="st3" d="M77.27,248.76l0.67,0.64l-0.86,1.14l-0.23,0.09l-0.17-0.18l-0.3-1.37L77.27,248.76"/>
				<path class="st3" d="M78.68,251.04l-0.51,0.48l-1.22-0.66l-0.1-0.21l0.19-0.17l1.4-0.12L78.68,251.04"/>
				<ellipse class="st3" cx="76.85" cy="250.65" rx="0.49" ry="0.47"/>
				<path class="st3" d="M79.34,251.88c0.06-0.18,0-0.37-0.13-0.42c-0.14-0.03-0.3,0.09-0.37,0.27c-0.06,0.19,0,0.38,0.14,0.42
					C79.11,252.19,79.27,252.07,79.34,251.88z"/>
				<path class="st3" d="M81.73,252c0.01,0.01,0.38-0.48,0.66-0.73c0.19-0.18,0.67-0.33,0.67-0.33c0-0.08-0.28-0.28-0.58-0.28
					c-0.18,0-0.35,0.07-0.45,0.2l-0.04-0.2c0,0-0.24,0.05-0.36,0.32c-0.11,0.29-0.03,0.72-0.03,0.72S81.64,251.9,81.73,252
					L81.73,252z"/>
				<path class="st3" d="M79.84,251.22l0.11,0.66l1.4,0.15l0.21-0.12l-0.05-0.23l-1.05-0.87L79.84,251.22"/>
				<path class="st3" d="M81.74,251.75c-0.11-0.12-0.35-0.09-0.53,0.06s-0.24,0.38-0.12,0.5c0.12,0.13,0.36,0.1,0.54-0.06
					C81.81,252.1,81.86,251.87,81.74,251.75z"/>
			</g>
			<g id="crown_pt2">
				<path class="st8" d="M64.05,255.3l0.31-0.5l0.65,0.13l-0.38,0.56L64.05,255.3"/>
				<path class="st9" d="M66.85,254.81l-0.69,0.11c-0.18,0.02-0.35-0.09-0.38-0.26c-0.02-0.17,0.1-0.32,0.27-0.35l0.7-0.1l0.71-0.11
					c0.18-0.02,0.34,0.09,0.37,0.25c0.02,0.17-0.1,0.33-0.27,0.35L66.85,254.81"/>
				<ellipse class="st10" cx="69.19" cy="254.3" rx="0.44" ry="0.41"/>
				<path class="st8" d="M71.7,254.48h-0.96c-0.18,0-0.33-0.14-0.33-0.31s0.14-0.31,0.32-0.31h1.96c0.19,0,0.33,0.14,0.33,0.31
					s-0.15,0.31-0.33,0.31H71.7"/>
				<ellipse class="st10" cx="74.16" cy="254.3" rx="0.44" ry="0.41"/>
				<path class="st9" d="M76.5,254.81l0.69,0.11c0.18,0.02,0.35-0.09,0.38-0.26c0.02-0.17-0.09-0.32-0.27-0.35l-0.7-0.1l-0.71-0.11
					c-0.18-0.02-0.35,0.09-0.37,0.25c-0.03,0.17,0.09,0.33,0.27,0.35L76.5,254.81"/>
				<path class="st8" d="M79.24,255.33l-0.25-0.53l-0.67,0.06l0.32,0.59L79.24,255.33"/>
				<path class="st2" d="M71.66,257.16c-2.43,0-4.63-0.22-6.3-0.65c1.67-0.43,3.87-0.69,6.3-0.7c2.44,0,4.65,0.27,6.33,0.7
					C76.31,256.94,74.1,257.16,71.66,257.16z"/>
				<path class="st11" d="M72.8,257.08v-1.16 M72.22,257.12l0.01-1.23 M71.8,257.14v-1.26"/>
				<path class="st12" d="M71.44,257.15v-1.27"/>
				<path class="st13" d="M71.09,257.15v-1.27"/>
				<path class="st14" d="M70.77,257.15v-1.27"/>
				<path class="st14" d="M70.44,257.15v-1.27"/>
				<path class="st15" d="M70.16,257.15v-1.27"/>
				<path class="st16" d="M69.61,257.08l-0.01-1.15 M69.87,257.1v-1.21"/>
				<path class="st17" d="M69.1,257.03v-1.06 M69.36,257.06l-0.01-1.13"/>
				<path class="st18" d="M68.42,256.97v-0.93 M68.65,256.98V256 M68.88,257.02V256"/>
				<path class="st19" d="M68.19,256.96v-0.9"/>
				<path class="st20" d="M67.97,256.92v-0.85"/>
				<path class="st21" d="M67.73,256.89v-0.78"/>
				<path class="st22" d="M67.24,256.82l-0.01-0.62 M67.49,256.86v-0.7"/>
				<path class="st22" d="M66.99,256.77v-0.55"/>
				<path class="st23" d="M66.76,256.73v-0.46"/>
				<path class="st24" d="M66.51,256.67v-0.36"/>
				<path class="st25" d="M66.26,256.64v-0.27"/>
				<path class="st26" d="M65.99,256.58v-0.13"/>
			</g>
		</g>
		<g id="pillar_left">
			<g>
				<path class="st27" d="M87.28,361.68c-1.54,0-2.91-0.33-3.93-0.87c-1-0.51-2.36-0.82-3.86-0.82c-1.51,0-2.9,0.32-3.91,0.83
					c-1.01,0.53-2.4,0.86-3.92,0.86c-1.54,0-2.92-0.36-3.93-0.9c-1-0.49-2.33-0.79-3.79-0.79c-1.52,0-2.86,0.29-3.86,0.81
					c-1.02,0.54-2.42,0.88-3.95,0.88v2.41c1.53,0,2.93-0.35,3.95-0.88c1-0.52,2.34-0.82,3.86-0.82c1.45,0,2.79,0.31,3.79,0.8
					c1.01,0.53,2.39,0.9,3.93,0.9c1.52,0,2.91-0.33,3.92-0.86c1.01-0.52,2.4-0.84,3.91-0.84c1.5,0,2.86,0.32,3.86,0.83
					c1.02,0.54,2.37,0.87,3.91,0.87L87.28,361.68L87.28,361.68z"/>
				<path class="st28" d="M87.28,364.09c-1.54,0-2.91-0.33-3.93-0.87c-1-0.51-2.36-0.83-3.86-0.83c-1.51,0-2.9,0.32-3.91,0.84
					c-1.01,0.53-2.4,0.86-3.92,0.86c-1.54,0-2.92-0.37-3.93-0.9c-1-0.49-2.33-0.8-3.79-0.8c-1.52,0-2.86,0.3-3.86,0.82
					c-1.02,0.53-2.42,0.88-3.95,0.88v2.41c1.53,0,2.93-0.35,3.95-0.88c1-0.52,2.34-0.82,3.86-0.82c1.45,0,2.79,0.31,3.79,0.8
					c1.01,0.54,2.39,0.9,3.93,0.9c1.52,0,2.91-0.34,3.92-0.86s2.4-0.84,3.91-0.84c1.5,0,2.86,0.32,3.86,0.84
					c1.02,0.53,2.37,0.86,3.91,0.86L87.28,364.09"/>
				<path class="st27" d="M87.28,366.5c-1.54,0-2.91-0.33-3.93-0.86c-1-0.52-2.36-0.84-3.86-0.84c-1.51,0-2.9,0.32-3.91,0.84
					s-2.4,0.86-3.92,0.86c-1.54,0-2.92-0.36-3.93-0.9c-1-0.49-2.33-0.8-3.79-0.8c-1.52,0-2.86,0.3-3.86,0.82
					c-1.02,0.53-2.42,0.88-3.95,0.88v2.4c1.53,0,2.93-0.34,3.95-0.88c1-0.51,2.34-0.8,3.86-0.8c1.45,0,2.79,0.3,3.79,0.79
					c1.01,0.54,2.39,0.89,3.93,0.89c1.52,0,2.91-0.32,3.92-0.85c1.01-0.52,2.4-0.83,3.91-0.83c1.5,0,2.86,0.31,3.86,0.82
					c1.02,0.55,2.37,0.86,3.91,0.86L87.28,366.5"/>
				<path class="st28" d="M87.26,371.32c-1.54,0-2.89-0.33-3.91-0.87c-1-0.51-2.36-0.82-3.86-0.82c-1.51,0-2.9,0.31-3.91,0.83
					s-2.4,0.86-3.92,0.86c-1.54,0-2.92-0.37-3.93-0.9c-1-0.5-2.33-0.79-3.79-0.79c-1.52,0-2.86,0.29-3.86,0.81
					c-1.02,0.53-2.42,0.88-3.95,0.88v-2.4c1.53,0,2.93-0.36,3.95-0.9c1-0.51,2.34-0.8,3.86-0.8c1.45,0,2.79,0.3,3.79,0.79
					c1.01,0.54,2.39,0.89,3.93,0.89c1.52,0,2.91-0.32,3.92-0.85c1.01-0.52,2.4-0.83,3.91-0.83c1.5,0,2.86,0.31,3.86,0.82
					c1.02,0.55,2.39,0.86,3.93,0.86L87.26,371.32"/>
				<path class="st27" d="M87.26,373.73c-1.54,0-2.89-0.33-3.91-0.86c-1-0.52-2.36-0.84-3.86-0.84c-1.51,0-2.9,0.32-3.91,0.84
					s-2.4,0.86-3.92,0.86c-1.54,0-2.92-0.37-3.93-0.9c-1-0.5-2.33-0.8-3.79-0.8c-1.52,0-2.86,0.3-3.86,0.82
					c-1.02,0.53-2.42,0.88-3.95,0.88v-2.39c1.53,0,2.93-0.37,3.95-0.9c1-0.52,2.34-0.81,3.86-0.81c1.45,0,2.79,0.3,3.79,0.79
					c1.01,0.53,2.39,0.9,3.93,0.9c1.52,0,2.91-0.34,3.92-0.86s2.4-0.83,3.91-0.83c1.5,0,2.86,0.31,3.86,0.82
					c1.02,0.54,2.38,0.87,3.93,0.87L87.26,373.73L87.26,373.73z"/>
			</g>
			<g>
				<path class="st29" d="M62.92,351.78c0.05,0.21,0.13,0.4,0.13,0.62c0,1.46-1.27,2.63-2.81,2.63h22.94
					c-1.55,0-2.81-1.17-2.81-2.63c0-0.21,0.04-0.41,0.09-0.62c-0.13,0.05-0.29,0.06-0.44,0.06H63.33
					C63.2,351.84,63.04,351.82,62.92,351.78z"/>
				<path class="st30" d="M63.33,350.27h16.69c0.57,0,1.02,0.35,1.02,0.78s-0.45,0.79-1.02,0.79H63.33c-0.56,0-1.02-0.36-1.02-0.79
					S62.77,350.27,63.33,350.27z"/>
				<path class="st30" d="M60.27,360.86h22.87v-5.83H60.27V360.86z"/>
			</g>
			<path class="st28" d="M63.55,349.32H79.8v-79.63H63.55V349.32z"/>
			<path class="st31" d="M75.13,269.8v79.46 M76.96,269.8v79.46"/>
			<g>
				<path class="st30" d="M60.58,263.37h22.29v-5.84H60.58L60.58,263.37L60.58,263.37z"/>
				<path class="st29" d="M62.92,267.26c0.14-0.06,0.24-0.07,0.41-0.07h16.69c0.17,0,0.32,0.03,0.46,0.08
					c-0.58-0.19-0.99-0.71-0.99-1.32s0.45-1.14,1.03-1.33c-0.14,0.04-0.33,0.08-0.49,0.08h-16.7c-0.17,0-0.33-0.01-0.47-0.06
					l0.09,0.02c0.6,0.18,0.94,0.71,0.94,1.29C63.89,266.51,63.51,267.08,62.92,267.26L62.92,267.26z"/>
				<path class="st30" d="M63.33,267.19h16.69c0.57,0,1.02,0.35,1.02,0.78c0,0.44-0.45,0.79-1.02,0.79H63.33
					c-0.56,0-1.02-0.35-1.02-0.79C62.31,267.54,62.77,267.19,63.33,267.19z"/>
				<path class="st30" d="M63.33,263.37h16.7c0.57,0,1.03,0.3,1.03,0.66c0,0.37-0.46,0.67-1.03,0.67h-16.7
					c-0.56,0-1.02-0.3-1.02-0.67C62.31,263.67,62.77,263.37,63.33,263.37z"/>
			</g>
		</g>
		<g id="ribbon_left">
			<path class="st32" d="M58.48,329.62c-2.26,1.3-3.8,2.64-3.55,3.31c0.12,0.61,0.84,1.07,1.87,1.75c1.62,1.13,2.6,3.14,1.83,4.07
				c1.34-1.08,2.19-2.69,2.19-4.49C60.82,332.39,59.92,330.7,58.48,329.62z"/>
			<path class="st33" d="M96.4,299.47c-3.54-1.46-9.57-2.55-16.49-2.78c-2.39,0.02-5.04,0.25-7.79,0.7
				c-9.72,1.63-17.13,5.51-16.54,8.67c0.01,0.06,0.04,0.2,0.05,0.26c0,0-3.64-8.21-3.7-8.52c-0.65-3.51,7.56-7.82,18.35-9.62
				c3.39-0.57,6.69-0.79,9.56-0.76c6.9,0,12.9,0.89,16.52,2.23L96.4,299.47"/>
			<path class="st32" d="M63.52,309.47c-4.51-0.32-7.58-1.53-7.94-3.41c-0.28-1.5,1.25-3.17,3.97-4.68c1.21,0.14,2.58,0.3,4,0.3
				L63.52,309.47"/>
			<path class="st32" d="M79.83,303.38c2.82,0.43,4.93,1.13,5.98,1.99l0.1,0.17c0.5,1.03-1.97,3.22-6.11,5.67L79.83,303.38"/>
			<path class="st33" d="M53.42,324.83c-0.43-1.28,3.97-3.86,10.18-6.14c2.84-1.01,5.18-2.07,8.09-3.35c8.63-3.82,15-8.2,14.22-9.79
				l-0.09-0.17c0.46,0.38,1.18,8.24,1.18,8.24c0.78,1.46-5.05,5.78-13,9.58c-2.54,1.22-7.91,3.2-10.44,4.09
				c-4.54,1.57-9.04,4.54-8.63,5.64l-1.51-8.09V324.83L53.42,324.83z"/>
		</g>
		<g id="crown_right">
			<path class="st34" d="M220.85,251.42c0,0-0.74,0.78-1.28,0.89c-0.53,0.1-1.21-0.49-1.21-0.49s-0.48,0.51-1.08,0.64
				c-0.59,0.14-1.41-0.66-1.41-0.66s-0.57,0.8-1.07,0.99c-0.51,0.18-1.13-0.24-1.13-0.24s-0.23,0.39-0.65,0.61
				c-0.18,0.09-0.48-0.05-0.48-0.05l-0.6-0.38l-0.68-0.72l-0.62-0.24c0,0-0.28-0.91-0.31-1.07c-0.02-0.16-0.08-0.57-0.08-0.57
				c-0.13-0.65,0.87-1.4,2.3-1.72c0.82-0.19,1.54-0.18,2.06-0.02c0.57-0.48,1.78-0.82,3.2-0.82c1.29,0,2.42,0.27,3.04,0.7
				c0.61-0.43,1.74-0.7,3.03-0.7c1.42,0,2.62,0.34,3.19,0.82c0.53-0.16,1.24-0.17,2.07,0.02c1.42,0.32,2.43,1.07,2.3,1.72
				c0,0-0.06,0.41-0.08,0.57c-0.03,0.16-0.32,1.07-0.32,1.07l-0.62,0.24l-0.68,0.72l-0.58,0.38c0,0-0.3,0.14-0.48,0.05
				c-0.43-0.21-0.66-0.61-0.66-0.61s-0.62,0.42-1.13,0.24c-0.51-0.19-1.07-0.99-1.07-0.99s-0.82,0.8-1.42,0.66
				c-0.59-0.13-1.07-0.64-1.07-0.64s-0.68,0.59-1.21,0.49C221.58,252.2,220.85,251.42,220.85,251.42L220.85,251.42z"/>
			<g>
				<ellipse class="st3" cx="220.82" cy="247.2" rx="1.38" ry="1.96"/>
				<ellipse class="st3" cx="220.85" cy="247.2" rx="0.63" ry="1.81"/>
				<ellipse class="st4" cx="220.84" cy="244.95" rx="0.93" ry="0.88"/>
				<path class="st5" d="M222.13,244.64v0.58h-2.53v-0.58h0.94v-1.3h-0.62v-0.58h0.62v-0.58h0.61v0.58h0.61v0.58h-0.61v1.3H222.13"
					/>
				<path class="st6" d="M221.11,244.12c0.491,0.143,0.766,0.635,0.615,1.1c-0.151,0.465-0.672,0.725-1.162,0.582
					s-0.766-0.635-0.615-1.1c0.095-0.291,0.341-0.515,0.652-0.592"/>
			</g>
			<g>
				<path class="st35" d="M210.41,250.99c-0.13-0.33-0.22-0.7-0.22-1.08c0-1.59,1.26-2.88,2.83-2.88c0.5,0,0.96,0.13,1.37,0.37"/>
				<path class="st6" d="M215.48,248.93c-0.15-0.26-0.29-0.54-0.29-0.84c0-1.15,1.19-2.08,2.64-2.08c0.62,0,1.2,0.17,1.65,0.45"/>
				<path class="st6" d="M226.17,248.96c0.15-0.26,0.25-0.57,0.25-0.87c0-1.15-1.18-2.08-2.64-2.08c-0.62,0-1.19,0.17-1.64,0.45"/>
				<path class="st35" d="M231.21,250.99c0.13-0.33,0.21-0.7,0.21-1.08c0-1.59-1.26-2.88-2.82-2.88c-0.5,0-0.97,0.13-1.38,0.37"/>
				<ellipse class="st36" cx="209.57" cy="249.68" rx="0.45" ry="0.43"/>
				<ellipse class="st36" cx="209.74" cy="248.1" rx="0.45" ry="0.43"/>
				<ellipse class="st36" cx="210.76" cy="246.9" rx="0.45" ry="0.43"/>
				<ellipse class="st36" cx="212.11" cy="246.25" rx="0.45" ry="0.43"/>
				<ellipse class="st36" cx="213.55" cy="246.31" rx="0.45" ry="0.43"/>
				<ellipse class="st37" cx="214.43" cy="248.08" rx="0.45" ry="0.43"/>
				<ellipse class="st36" cx="214.68" cy="246.58" rx="0.45" ry="0.43"/>
				<ellipse class="st36" cx="215.81" cy="245.64" rx="0.45" ry="0.43"/>
				<ellipse class="st36" cx="217.23" cy="245.19" rx="0.45" ry="0.43"/>
				<ellipse class="st36" cx="218.67" cy="245.24" rx="0.45" ry="0.43"/>
				<ellipse class="st36" cx="222.94" cy="245.24" rx="0.45" ry="0.43"/>
				<ellipse class="st36" cx="224.39" cy="245.19" rx="0.45" ry="0.43"/>
				<ellipse class="st36" cx="225.8" cy="245.64" rx="0.45" ry="0.43"/>
				<ellipse class="st36" cx="226.93" cy="246.58" rx="0.45" ry="0.43"/>
				<ellipse class="st37" cx="227.18" cy="248.08" rx="0.45" ry="0.43"/>
				<ellipse class="st36" cx="228.06" cy="246.31" rx="0.45" ry="0.43"/>
				<ellipse class="st36" cx="229.51" cy="246.25" rx="0.45" ry="0.43"/>
				<ellipse class="st36" cx="230.86" cy="246.9" rx="0.45" ry="0.43"/>
				<ellipse class="st36" cx="231.88" cy="248.1" rx="0.45" ry="0.43"/>
				<ellipse class="st36" cx="232.05" cy="249.68" rx="0.45" ry="0.43"/>
			</g>
			<g>
				<g id="crown_pt1_1_">
					<path class="st3" d="M213.75,255.25c-0.2-0.57-0.58-1.08-0.58-1.08c1.95-0.57,4.66-0.93,7.67-0.94
						c3.01,0.01,5.75,0.37,7.69,0.94c0,0-0.22,0.38-0.52,0.91c-0.17,0.3-0.39,0.81-0.38,0.81c-1.75-0.54-4.02-0.81-6.8-0.82
						c-2.79,0.01-5.46,0.35-6.86,0.86c0.02,0-0.1-0.32-0.23-0.68H213.75"/>
					<path class="st3" d="M220.84,257.73c2.43-0.01,5.11-0.38,6.1-0.63c0.66-0.2,1.05-0.49,0.98-0.84c-0.04-0.16-0.18-0.3-0.37-0.38
						c-1.46-0.47-4.07-0.8-6.71-0.8c-2.63,0-5.27,0.33-6.72,0.8c-0.19,0.08-0.33,0.22-0.37,0.38c-0.07,0.35,0.32,0.64,0.98,0.84
						C215.72,257.35,218.41,257.72,220.84,257.73z"/>
					<path class="st3" d="M228.65,253.08l-0.59-0.53c0,0-0.57,0.34-1.28,0.24c-0.7-0.11-0.93-0.97-0.93-0.97s-0.79,0.67-1.44,0.62
						c-0.65-0.06-1.07-0.62-1.07-0.62s-0.71,0.51-1.33,0.46c-0.62-0.06-1.21-0.83-1.21-0.83s-0.63,0.8-1.25,0.86
						c-0.62,0.05-1.13-0.54-1.13-0.54s-0.28,0.59-1.07,0.72s-1.47-0.62-1.47-0.62s-0.45,0.73-0.99,0.92
						c-0.54,0.18-1.24-0.27-1.24-0.27s-0.12,0.27-0.2,0.43s-0.31,0.19-0.31,0.19l0.18,0.47c1.93-0.56,4.56-0.91,7.53-0.91
						s5.67,0.35,7.61,0.92l0.2-0.54L228.65,253.08L228.65,253.08z"/>
					<path class="st3" d="M220.86,250.49l0.28,0.05c-0.05,0.12-0.06,0.24-0.06,0.38c0,0.58,0.5,1.05,1.12,1.05
						c0.49,0,0.91-0.31,1.06-0.73c0.01,0.01,0.11-0.38,0.15-0.38c0.03,0,0.03,0.41,0.05,0.41c0.07,0.53,0.55,0.89,1.1,0.89
						c0.62,0,1.11-0.47,1.11-1.06c0-0.04,0-0.08-0.01-0.12l0.35-0.35l0.19,0.44c-0.07,0.14-0.1,0.29-0.1,0.46
						c0,0.56,0.47,1.01,1.06,1.01c0.37,0,0.69-0.18,0.88-0.45l0.23-0.29v0.36c0,0.34,0.14,0.66,0.49,0.71c0,0,0.38,0.03,0.91-0.38
						c0.52-0.41,0.8-0.75,0.8-0.75l0.03,0.42c0,0-0.51,0.84-0.97,1.1c-0.25,0.15-0.64,0.31-0.95,0.25
						c-0.32-0.05-0.55-0.31-0.67-0.61c-0.23,0.14-0.51,0.22-0.8,0.22c-0.63,0-1.2-0.35-1.42-0.86c-0.29,0.31-0.69,0.5-1.16,0.5
						c-0.51,0-0.97-0.23-1.26-0.58c-0.28,0.27-0.67,0.43-1.09,0.43c-0.55,0-1.05-0.28-1.33-0.69c-0.29,0.41-0.78,0.69-1.34,0.69
						c-0.42,0-0.81-0.16-1.09-0.43c-0.29,0.35-0.75,0.58-1.25,0.58c-0.48,0-0.88-0.19-1.17-0.5c-0.22,0.51-0.79,0.86-1.42,0.86
						c-0.29,0-0.56-0.08-0.79-0.22c-0.12,0.3-0.35,0.56-0.68,0.61c-0.3,0.06-0.69-0.1-0.94-0.25c-0.47-0.26-1.02-1.1-1.02-1.1
						l0.07-0.42c0,0,0.29,0.34,0.81,0.75s0.91,0.38,0.91,0.38c0.34-0.05,0.49-0.37,0.49-0.71v-0.36l0.22,0.29
						c0.19,0.27,0.51,0.45,0.88,0.45c0.59,0,1.06-0.45,1.06-1.01c0-0.17-0.02-0.32-0.1-0.46l0.19-0.44l0.35,0.35
						c-0.01,0.04-0.01,0.08-0.01,0.12c0,0.59,0.49,1.06,1.11,1.06c0.55,0,1.03-0.36,1.11-0.89c0.01,0,0.01-0.41,0.04-0.41
						c0.05,0,0.14,0.39,0.16,0.38c0.14,0.42,0.56,0.73,1.06,0.73c0.61,0,1.11-0.47,1.11-1.05c0-0.14,0-0.26-0.05-0.38l0.29-0.05
						H220.86L220.86,250.49z"/>
					<path class="st7" d="M220.84,253.23c-3.01,0.01-5.72,0.37-7.67,0.94c-0.13,0.04-0.29-0.06-0.33-0.17
						c-0.04-0.13,0.05-0.28,0.18-0.32c1.95-0.6,4.73-0.98,7.82-0.98s5.88,0.38,7.83,0.98c0.13,0.04,0.22,0.19,0.18,0.32
						c-0.04,0.11-0.2,0.21-0.33,0.17C226.57,253.6,223.85,253.24,220.84,253.23z"/>
					<path class="st3" d="M210.6,252c-0.01,0.01-0.38-0.48-0.65-0.73c-0.2-0.18-0.68-0.33-0.68-0.33c0-0.08,0.28-0.28,0.58-0.28
						c0.18,0,0.35,0.07,0.45,0.2l0.04-0.2c0,0,0.24,0.05,0.35,0.32c0.12,0.29,0.05,0.72,0.05,0.72S210.69,251.9,210.6,252L210.6,252
						z"/>
					<path class="st3" d="M212.49,251.22l-0.11,0.66l-1.4,0.15l-0.21-0.12l0.04-0.23l1.06-0.87L212.49,251.22"/>
					<path class="st3" d="M210.62,251.75c0.12-0.12,0.36-0.09,0.53,0.06c0.18,0.15,0.24,0.38,0.12,0.5
						c-0.12,0.13-0.36,0.1-0.53-0.06C210.56,252.1,210.5,251.87,210.62,251.75z"/>
					<path class="st3" d="M213.19,251.88c-0.06-0.18,0-0.37,0.13-0.42c0.14-0.03,0.3,0.09,0.37,0.27c0.06,0.19,0,0.38-0.14,0.42
						C213.42,252.19,213.26,252.07,213.19,251.88z"/>
					<path class="st3" d="M213.84,251.04l0.51,0.48l1.22-0.66l0.09-0.21l-0.17-0.17l-1.4-0.12L213.84,251.04"/>
					<path class="st3" d="M215.25,248.76l-0.67,0.64l0.86,1.14l0.23,0.09l0.17-0.18l0.3-1.37L215.25,248.76"/>
					<path class="st3" d="M217.53,250.3l-0.26,0.63l-1.4-0.13l-0.18-0.16l0.1-0.22l1.22-0.64L217.53,250.3"/>
					<ellipse class="st3" cx="215.68" cy="250.65" rx="0.49" ry="0.47"/>
					<path class="st3" d="M218.04,250.95c-0.03-0.2,0.07-0.37,0.21-0.39s0.28,0.13,0.3,0.33c0.03,0.19-0.07,0.37-0.21,0.38
						C218.2,251.29,218.06,251.14,218.04,250.95z"/>
					<path class="st3" d="M218.95,250.24l0.4,0.57l1.34-0.42l0.14-0.18l-0.15-0.2l-1.33-0.39L218.95,250.24"/>
					<path class="st3" d="M220.83,248.15l-0.86,0.52l0.64,1.38l0.22,0.14l0.22-0.14l0.64-1.38L220.83,248.15"/>
					<path class="st3" d="M222.72,250.24l-0.39,0.57l-1.34-0.42l-0.14-0.18l0.14-0.2l1.34-0.39L222.72,250.24"/>
					<ellipse class="st3" cx="220.84" cy="250.21" rx="0.49" ry="0.47"/>
					<path class="st3" d="M223.67,250.95c0.02-0.2-0.08-0.37-0.22-0.39s-0.28,0.13-0.3,0.33c-0.02,0.19,0.07,0.37,0.21,0.38
						C223.5,251.29,223.64,251.14,223.67,250.95z"/>
					<path class="st3" d="M224.16,250.3l0.26,0.63l1.4-0.13l0.18-0.16l-0.1-0.22l-1.22-0.64L224.16,250.3"/>
					<path class="st3" d="M226.44,248.76l0.67,0.64l-0.86,1.14l-0.23,0.09l-0.17-0.18l-0.3-1.37L226.44,248.76"/>
					<path class="st3" d="M227.85,251.04l-0.51,0.48l-1.22-0.66l-0.1-0.21l0.19-0.17l1.4-0.12L227.85,251.04"/>
					<ellipse class="st3" cx="226.02" cy="250.65" rx="0.49" ry="0.47"/>
					<path class="st3" d="M228.51,251.88c0.06-0.18,0-0.37-0.13-0.42c-0.14-0.03-0.3,0.09-0.37,0.27c-0.06,0.19,0,0.38,0.14,0.42
						C228.28,252.19,228.44,252.07,228.51,251.88z"/>
					<path class="st3" d="M230.9,252c0.01,0.01,0.38-0.48,0.66-0.73c0.19-0.18,0.67-0.33,0.67-0.33c0-0.08-0.28-0.28-0.58-0.28
						c-0.18,0-0.35,0.07-0.45,0.2l-0.04-0.2c0,0-0.24,0.05-0.36,0.32c-0.11,0.29-0.03,0.72-0.03,0.72S230.81,251.9,230.9,252
						L230.9,252z"/>
					<path class="st3" d="M229.01,251.22l0.11,0.66l1.4,0.15l0.21-0.12l-0.05-0.23l-1.05-0.87L229.01,251.22"/>
					<path class="st3" d="M230.91,251.75c-0.11-0.12-0.35-0.09-0.53,0.06s-0.24,0.38-0.12,0.5c0.12,0.13,0.36,0.1,0.54-0.06
						C230.98,252.1,231.03,251.87,230.91,251.75z"/>
				</g>
			</g>
			<g>
				<g id="crown_pt2_1_">
					<path class="st8" d="M213.22,255.3l0.31-0.5l0.65,0.13l-0.38,0.56L213.22,255.3"/>
					<path class="st9" d="M216.02,254.81l-0.69,0.11c-0.18,0.02-0.35-0.09-0.38-0.26c-0.02-0.17,0.1-0.32,0.27-0.35l0.7-0.1
						l0.71-0.11c0.18-0.02,0.34,0.09,0.37,0.25c0.02,0.17-0.1,0.33-0.27,0.35L216.02,254.81"/>
					<ellipse class="st10" cx="218.36" cy="254.3" rx="0.44" ry="0.41"/>
					<path class="st8" d="M220.87,254.48h-0.96c-0.18,0-0.33-0.14-0.33-0.31s0.14-0.31,0.32-0.31h1.96c0.19,0,0.33,0.14,0.33,0.31
						s-0.15,0.31-0.33,0.31H220.87"/>
					<ellipse class="st10" cx="223.33" cy="254.3" rx="0.44" ry="0.41"/>
					<path class="st9" d="M225.67,254.81l0.69,0.11c0.18,0.02,0.35-0.09,0.38-0.26c0.02-0.17-0.09-0.32-0.27-0.35l-0.7-0.1
						l-0.71-0.11c-0.18-0.02-0.35,0.09-0.37,0.25c-0.03,0.17,0.09,0.33,0.27,0.35L225.67,254.81"/>
					<path class="st8" d="M228.41,255.33l-0.25-0.53l-0.67,0.06l0.32,0.59L228.41,255.33"/>
					<path class="st2" d="M220.83,257.16c-2.43,0-4.63-0.22-6.3-0.65c1.67-0.43,3.87-0.69,6.3-0.7c2.44,0,4.65,0.27,6.33,0.7
						C225.48,256.94,223.27,257.16,220.83,257.16z"/>
					<path class="st11" d="M221.97,257.08v-1.16 M221.39,257.12l0.01-1.23 M220.97,257.14v-1.26"/>
					<path class="st12" d="M220.61,257.15v-1.27"/>
					<path class="st13" d="M220.26,257.15v-1.27"/>
					<path class="st14" d="M219.94,257.15v-1.27"/>
					<path class="st14" d="M219.61,257.15v-1.27"/>
					<path class="st15" d="M219.33,257.15v-1.27"/>
					<path class="st16" d="M218.78,257.08l-0.01-1.15 M219.04,257.1v-1.21"/>
					<path class="st17" d="M218.27,257.03v-1.06 M218.53,257.06l-0.01-1.13"/>
					<path class="st18" d="M217.59,256.97v-0.93 M217.82,256.98V256 M218.05,257.02V256"/>
					<path class="st19" d="M217.36,256.96v-0.9"/>
					<path class="st20" d="M217.14,256.92v-0.85"/>
					<path class="st21" d="M216.9,256.89v-0.78"/>
					<path class="st22" d="M216.41,256.82l-0.01-0.62 M216.66,256.86v-0.7"/>
					<path class="st22" d="M216.16,256.77v-0.55"/>
					<path class="st23" d="M215.93,256.73v-0.46"/>
					<path class="st24" d="M215.68,256.67v-0.36"/>
					<path class="st25" d="M215.43,256.64v-0.27"/>
					<path class="st26" d="M215.16,256.58v-0.13"/>
				</g>
			</g>
		</g>
		<g id="pillar_right">
			<g id="pillar_left_1_">
				<g>
					<path class="st27" d="M236.45,361.68c-1.54,0-2.91-0.33-3.93-0.87c-1-0.51-2.36-0.82-3.86-0.82c-1.51,0-2.9,0.32-3.91,0.83
						c-1.01,0.53-2.4,0.86-3.92,0.86c-1.54,0-2.92-0.36-3.93-0.9c-1-0.49-2.33-0.79-3.79-0.79c-1.52,0-2.86,0.29-3.86,0.81
						c-1.02,0.54-2.42,0.88-3.95,0.88v2.41c1.53,0,2.93-0.35,3.95-0.88c1-0.52,2.34-0.82,3.86-0.82c1.45,0,2.79,0.31,3.79,0.8
						c1.01,0.53,2.39,0.9,3.93,0.9c1.52,0,2.91-0.33,3.92-0.86c1.01-0.52,2.4-0.84,3.91-0.84c1.5,0,2.86,0.32,3.86,0.83
						c1.02,0.54,2.37,0.87,3.91,0.87L236.45,361.68L236.45,361.68z"/>
					<path class="st28" d="M236.45,364.09c-1.54,0-2.91-0.33-3.93-0.87c-1-0.51-2.36-0.83-3.86-0.83c-1.51,0-2.9,0.32-3.91,0.84
						c-1.01,0.53-2.4,0.86-3.92,0.86c-1.54,0-2.92-0.37-3.93-0.9c-1-0.49-2.33-0.8-3.79-0.8c-1.52,0-2.86,0.3-3.86,0.82
						c-1.02,0.53-2.42,0.88-3.95,0.88v2.41c1.53,0,2.93-0.35,3.95-0.88c1-0.52,2.34-0.82,3.86-0.82c1.45,0,2.79,0.31,3.79,0.8
						c1.01,0.54,2.39,0.9,3.93,0.9c1.52,0,2.91-0.34,3.92-0.86s2.4-0.84,3.91-0.84c1.5,0,2.86,0.32,3.86,0.84
						c1.02,0.53,2.37,0.86,3.91,0.86L236.45,364.09"/>
					<path class="st27" d="M236.45,366.5c-1.54,0-2.91-0.33-3.93-0.86c-1-0.52-2.36-0.84-3.86-0.84c-1.51,0-2.9,0.32-3.91,0.84
						s-2.4,0.86-3.92,0.86c-1.54,0-2.92-0.36-3.93-0.9c-1-0.49-2.33-0.8-3.79-0.8c-1.52,0-2.86,0.3-3.86,0.82
						c-1.02,0.53-2.42,0.88-3.95,0.88v2.4c1.53,0,2.93-0.34,3.95-0.88c1-0.51,2.34-0.8,3.86-0.8c1.45,0,2.79,0.3,3.79,0.79
						c1.01,0.54,2.39,0.89,3.93,0.89c1.52,0,2.91-0.32,3.92-0.85c1.01-0.52,2.4-0.83,3.91-0.83c1.5,0,2.86,0.31,3.86,0.82
						c1.02,0.55,2.37,0.86,3.91,0.86L236.45,366.5"/>
					<path class="st28" d="M236.43,371.32c-1.54,0-2.89-0.33-3.91-0.87c-1-0.51-2.36-0.82-3.86-0.82c-1.51,0-2.9,0.31-3.91,0.83
						s-2.4,0.86-3.92,0.86c-1.54,0-2.92-0.37-3.93-0.9c-1-0.5-2.33-0.79-3.79-0.79c-1.52,0-2.86,0.29-3.86,0.81
						c-1.02,0.53-2.42,0.88-3.95,0.88v-2.4c1.53,0,2.93-0.36,3.95-0.9c1-0.51,2.34-0.8,3.86-0.8c1.45,0,2.79,0.3,3.79,0.79
						c1.01,0.54,2.39,0.89,3.93,0.89c1.52,0,2.91-0.32,3.92-0.85c1.01-0.52,2.4-0.83,3.91-0.83c1.5,0,2.86,0.31,3.86,0.82
						c1.02,0.55,2.39,0.86,3.93,0.86L236.43,371.32"/>
					<path class="st27" d="M236.43,373.73c-1.54,0-2.89-0.33-3.91-0.86c-1-0.52-2.36-0.84-3.86-0.84c-1.51,0-2.9,0.32-3.91,0.84
						s-2.4,0.86-3.92,0.86c-1.54,0-2.92-0.37-3.93-0.9c-1-0.5-2.33-0.8-3.79-0.8c-1.52,0-2.86,0.3-3.86,0.82
						c-1.02,0.53-2.42,0.88-3.95,0.88v-2.39c1.53,0,2.93-0.37,3.95-0.9c1-0.52,2.34-0.81,3.86-0.81c1.45,0,2.79,0.3,3.79,0.79
						c1.01,0.53,2.39,0.9,3.93,0.9c1.52,0,2.91-0.34,3.92-0.86s2.4-0.83,3.91-0.83c1.5,0,2.86,0.31,3.86,0.82
						c1.02,0.54,2.38,0.87,3.93,0.87L236.43,373.73L236.43,373.73z"/>
				</g>
				<g>
					<path class="st29" d="M212.09,351.78c0.05,0.21,0.13,0.4,0.13,0.62c0,1.46-1.27,2.63-2.81,2.63h22.94
						c-1.55,0-2.81-1.17-2.81-2.63c0-0.21,0.04-0.41,0.09-0.62c-0.13,0.05-0.29,0.06-0.44,0.06H212.5
						C212.37,351.84,212.21,351.82,212.09,351.78z"/>
					<path class="st30" d="M212.5,350.27h16.69c0.57,0,1.02,0.35,1.02,0.78s-0.45,0.79-1.02,0.79H212.5c-0.56,0-1.02-0.36-1.02-0.79
						S211.94,350.27,212.5,350.27z"/>
					<path class="st30" d="M209.44,360.86h22.87v-5.83h-22.87V360.86z"/>
				</g>
				<path class="st28" d="M212.72,349.32h16.25v-79.63h-16.25V349.32z"/>
				<path class="st31" d="M224.3,269.8v79.46 M226.13,269.8v79.46"/>
				<g>
					<path class="st30" d="M209.75,263.37h22.29v-5.84h-22.29L209.75,263.37L209.75,263.37z"/>
					<path class="st29" d="M212.09,267.26c0.14-0.06,0.24-0.07,0.41-0.07h16.69c0.17,0,0.32,0.03,0.46,0.08
						c-0.58-0.19-0.99-0.71-0.99-1.32s0.45-1.14,1.03-1.33c-0.14,0.04-0.33,0.08-0.49,0.08h-16.7c-0.17,0-0.33-0.01-0.47-0.06
						l0.09,0.02c0.6,0.18,0.94,0.71,0.94,1.29C213.06,266.51,212.68,267.08,212.09,267.26L212.09,267.26z"/>
					<path class="st30" d="M212.5,267.19h16.69c0.57,0,1.02,0.35,1.02,0.78c0,0.44-0.45,0.79-1.02,0.79H212.5
						c-0.56,0-1.02-0.35-1.02-0.79C211.48,267.54,211.94,267.19,212.5,267.19z"/>
					<path class="st30" d="M212.5,263.37h16.7c0.57,0,1.03,0.3,1.03,0.66c0,0.37-0.46,0.67-1.03,0.67h-16.7
						c-0.56,0-1.02-0.3-1.02-0.67C211.48,263.67,211.94,263.37,212.5,263.37z"/>
				</g>
			</g>
		</g>
		<g id="ribbon_right" transform="matrix(-1,0,0,1,500.57,0)">
			<g id="ribbon_left_1_">
				<path class="st32" d="M234.09,329.62c2.26,1.3,3.8,2.64,3.55,3.31c-0.12,0.61-0.84,1.07-1.87,1.75
					c-1.62,1.13-2.6,3.14-1.83,4.07c-1.34-1.08-2.19-2.69-2.19-4.49C231.75,332.39,232.65,330.7,234.09,329.62z"/>
				<path class="st33" d="M196.17,299.47c3.54-1.46,9.57-2.55,16.49-2.78c2.39,0.02,5.04,0.25,7.79,0.7
					c9.72,1.63,17.13,5.51,16.54,8.67c-0.01,0.06-0.04,0.2-0.05,0.26c0,0,3.64-8.21,3.7-8.52c0.65-3.51-7.56-7.82-18.35-9.62
					c-3.39-0.57-6.69-0.79-9.56-0.76c-6.9,0-12.9,0.89-16.52,2.23L196.17,299.47"/>
				<path class="st32" d="M229.05,309.47c4.51-0.32,7.58-1.53,7.94-3.41c0.28-1.5-1.25-3.17-3.97-4.68c-1.21,0.14-2.58,0.3-4,0.3
					L229.05,309.47"/>
				<path class="st32" d="M212.74,303.38c-2.82,0.43-4.93,1.13-5.98,1.99l-0.1,0.17c-0.5,1.03,1.97,3.22,6.11,5.67L212.74,303.38"/>
				<path class="st33" d="M239.15,324.83c0.43-1.28-3.97-3.86-10.18-6.14c-2.84-1.01-5.18-2.07-8.09-3.35
					c-8.63-3.82-15-8.2-14.22-9.79l0.09-0.17c-0.46,0.38-1.18,8.24-1.18,8.24c-0.78,1.46,5.05,5.78,13,9.58
					c2.54,1.22,7.91,3.2,10.44,4.09c4.54,1.57,9.04,4.54,8.63,5.64l1.51-8.09V324.83L239.15,324.83z"/>
			</g>
		</g>
		<g id="plus_ultra">
			<path class="st4" d="M62.42,295.65c1.99-0.72,3.29-1.58,2.66-3.14c-0.41-1-1.43-1.19-2.97-0.63l-2.71,0.99l2.44,6.03
				c0.27-0.12,0.54-0.24,0.81-0.34c0.28-0.1,0.57-0.18,0.85-0.26l-1.08-2.64V295.65L62.42,295.65z M61.24,292.74l0.69-0.25
				c0.57-0.21,1.21,0.1,1.5,0.8c0.21,0.53,0.16,1.13-0.5,1.55c-0.21,0.13-0.46,0.23-0.7,0.33L61.24,292.74"/>
			<path class="st4" d="M68.78,290.22c-0.29,0.08-0.57,0.16-0.86,0.22c-0.29,0.05-0.59,0.09-0.88,0.12l1.41,6.28l4.38-0.88
				c-0.05-0.12-0.12-0.26-0.14-0.38c-0.03-0.14-0.03-0.28-0.04-0.41c-0.77,0.22-1.61,0.46-2.61,0.66L68.78,290.22"/>
			<path class="st4" d="M77.56,295.63c0.82-2.28,1.82-4.46,2.81-6.67c-0.18,0.03-0.36,0.06-0.54,0.07s-0.37,0.01-0.54,0
				c-0.53,1.61-1.18,3.21-1.87,4.8c-0.82-1.51-1.73-2.99-2.43-4.51c-0.34,0.04-0.69,0.09-1.03,0.12c-0.34,0.02-0.7,0.01-1.04,0.02
				c1.26,2.06,2.48,4.11,3.64,6.23c0.16-0.03,0.32-0.06,0.5-0.08C77.22,295.6,77.39,295.62,77.56,295.63"/>
			<path class="st4" d="M86.72,290.8c0.15-0.31,0.31-0.6,0.48-0.89c-0.24-0.22-0.96-0.55-1.81-0.63c-1.79-0.18-2.81,0.61-2.93,1.69
				c-0.26,2.26,3.31,2.07,3.14,3.57c-0.07,0.64-0.75,0.9-1.48,0.83c-0.81-0.08-1.41-0.53-1.51-1.19l-0.22-0.02
				c-0.12,0.39-0.29,0.77-0.48,1.15c0.53,0.34,1.21,0.53,1.85,0.59c1.83,0.19,3.22-0.54,3.35-1.74c0.23-2.15-3.37-2.27-3.23-3.54
				c0.06-0.53,0.47-0.88,1.4-0.79c0.67,0.07,1.08,0.43,1.26,0.95L86.72,290.8"/>
			<path class="st4" d="M206.3,295.98c0.62-2.33,1.41-4.58,2.19-6.87c-0.17,0.05-0.35,0.09-0.53,0.11
				c-0.17,0.03-0.36,0.04-0.54,0.05c-0.37,1.64-0.88,3.29-1.42,4.94c-0.96-1.44-2-2.84-2.83-4.3c-0.34,0.07-0.68,0.15-1.02,0.2
				s-0.69,0.07-1.04,0.11c1.45,1.94,2.85,3.89,4.2,5.91c0.16-0.04,0.32-0.1,0.5-0.12C205.97,295.99,206.14,295.99,206.3,295.98"/>
			<path class="st4" d="M212.48,289.16c-0.29,0.01-0.59,0.04-0.88,0.03c-0.3,0-0.6-0.04-0.89-0.06l-0.12,6.41l4.49,0.08
				c-0.03-0.13-0.06-0.28-0.06-0.41s0.04-0.27,0.07-0.4c-0.81,0.05-1.68,0.1-2.71,0.08L212.48,289.16"/>
			<path class="st4" d="M219.52,290.21c0.72,0.06,1.41,0.19,2.1,0.31c-0.01-0.13-0.03-0.27-0.02-0.41c0.01-0.13,0.06-0.26,0.1-0.39
				l-6.07-0.5c0.01,0.14,0.03,0.27,0.02,0.4c-0.01,0.14-0.06,0.27-0.1,0.4c0.62-0.02,1.37-0.02,2.21,0.05l-0.53,5.77
				c0.29,0,0.59,0,0.88,0.03c0.3,0.02,0.59,0.07,0.88,0.11L219.52,290.21"/>
			<path class="st4" d="M222.01,296.53c0.29,0.05,0.59,0.09,0.88,0.15c0.28,0.06,0.57,0.15,0.85,0.23l0.72-2.94l0.08,0.01
				c0.16,0.41,0.38,0.9,0.49,1.19l0.9,2.22c0.36,0.06,0.71,0.11,1.05,0.18c0.36,0.08,0.7,0.18,1.04,0.28l-0.31-0.67
				c-0.48-1-0.99-2.01-1.41-3.02c1.12,0.04,1.98-0.36,2.2-1.26c0.15-0.62-0.1-1.11-0.68-1.53c-0.44-0.31-1.28-0.47-1.83-0.6
				l-2.44-0.53L222.01,296.53 M225.15,291.11c0.71,0.16,1.59,0.27,1.59,1.07c-0.01,0.21-0.03,0.35-0.06,0.48
				c-0.23,0.94-0.94,1.26-2.13,0.91L225.15,291.11"/>
			<path class="st4" d="M233.57,298.46c-0.05,0.69-0.18,1.37-0.31,2.1c0.3,0.14,0.61,0.27,0.9,0.44c0.3,0.16,0.57,0.34,0.86,0.52
				l0.6-7.23c-0.14-0.06-0.27-0.12-0.41-0.19c-0.13-0.07-0.25-0.15-0.37-0.24l-6.38,4.05c0.17,0.08,0.35,0.16,0.51,0.25
				c0.17,0.09,0.31,0.19,0.47,0.28c0.54-0.45,1.1-0.82,1.74-1.3l2.39,1.31V298.46z M231.76,296.8l2.13-1.37l-0.25,2.4L231.76,296.8"
				/>
		</g>
	</g>
	<g id="crown_crest">
		<path class="st8" d="M145.65,213.72c6.64,0,12.56,0.99,16.41,2.51c2.2,1,5.16,1.73,8.4,2.17c2.47,0.33,4.81,0.39,6.85,0.24
			c2.73-0.06,6.67,0.74,10.62,2.48c3.26,1.45,5.99,3.21,7.8,4.91l-1.57,1.4l-0.45,3.96l-4.3,4.92l-2.15,1.83l-5.09,4.07l-2.6,0.21
			l-0.79,2.25l-32.91-3.86l-33.02,3.86l-0.79-2.25l-2.61-0.21l-5.08-4.07l-2.15-1.83l-4.3-4.92l-0.44-3.96l-1.58-1.4
			c1.82-1.7,4.54-3.46,7.8-4.91c3.95-1.74,7.89-2.54,10.62-2.48c2.04,0.15,4.38,0.09,6.85-0.24c3.24-0.44,6.2-1.17,8.4-2.17
			C133.43,214.71,139.01,213.72,145.65,213.72L145.65,213.72z"/>
		<g>
			<path class="st30" d="M121.34,222.42l1.38,1.11l2.08-3.4c-2.25-1.38-3.8-3.78-3.8-6.51c0-0.31,0.02-0.61,0.06-0.91
				c0.21-4.34,5.5-7.92,12.2-7.92c3.48,0,6.63,0.95,8.84,2.48c0.06-0.67,0.12-1.25,0.21-1.86c-2.43-1.42-5.6-2.28-9.05-2.28
				c-7.71,0-13.74,4.39-14.03,9.57c-0.03,0.31-0.05,0.61-0.05,0.92c0,2.76,1.26,5.26,3.26,6.99L121.34,222.42"/>
			<path class="st30" d="M121.43,222.46c-2.63-1.97-4.27-4.64-4.27-7.58c0-3.38,2.22-6.4,5.58-8.41c-2.07,1.67-3.33,3.83-3.51,6.23
				c-0.03,0.31-0.05,0.61-0.05,0.92c0,2.76,1.26,5.26,3.26,6.99L121.43,222.46"/>
			<path class="st30" d="M98.21,225.89c-1.48-1.65-2.38-3.79-2.38-6.12c0-1.41,0.33-2.75,0.91-3.95c2.13-4.38,8.82-7.57,16.76-7.57
				c2.16,0,4.23,0.23,6.14,0.67c-0.42,0.46-0.75,0.97-1.08,1.48c-1.59-0.31-3.29-0.48-5.06-0.48c-7.27,0-13.36,2.83-15.12,6.65
				c-0.47,0.97-0.73,2.06-0.73,3.2c0,2.32,1.09,4.4,2.79,5.82l-2.63,4.3l-1.41-1.12L98.21,225.89L98.21,225.89z"/>
			<path class="st30" d="M100.9,211.48c-1.91,1.21-3.36,2.69-4.16,4.34c-0.58,1.2-0.91,2.54-0.91,3.95c0,2.33,0.9,4.47,2.38,6.12
				l-1.6,2.59c-1.53-1.96-2.42-4.26-2.42-6.7C94.19,217.58,96.86,213.91,100.9,211.48L100.9,211.48z"/>
			<path class="st30" d="M146.04,202.27c1.76,0,3.28,1.16,3.64,2.73c0.23,1.38,0.38,2.95,0.41,4.62c0.01,0.18-0.01,0.35-0.01,0.52
				c0,0.2,0.04,0.41,0.05,0.61c0.06,3.52,0.56,6.62,1.27,8.52l-5.36,5.14l-5.43-5.14c0.72-1.9,1.22-5,1.29-8.52
				c0-0.2,0.04-0.41,0.04-0.61c0-0.17-0.01-0.34-0.01-0.52c0.03-1.67,0.18-3.24,0.41-4.62C142.7,203.43,144.28,202.27,146.04,202.27
				L146.04,202.27z"/>
			<path class="st30" d="M146.04,203.94c0.91,0,1.68,0.58,1.87,1.39c0.23,1.31,0.37,2.8,0.4,4.38c0,0.16-0.01,0.32-0.01,0.48
				c0,0.2,0.03,0.39,0.04,0.59c0.05,3.32,0.53,6.25,1.21,8.05l-3.54,3.35l-3.54-3.35c0.67-1.8,1.15-4.73,1.21-8.05
				c0-0.2,0.04-0.39,0.04-0.59c0-0.16-0.01-0.32-0.01-0.48c0.03-1.58,0.17-3.07,0.4-4.38C144.29,204.52,145.13,203.94,146.04,203.94
				z"/>
			<path class="st30" d="M170.7,222.42l-1.39,1.11l-2.08-3.4c2.26-1.38,3.81-3.78,3.81-6.51c0-0.31-0.02-0.61-0.06-0.91
				c-0.21-4.34-5.5-7.92-12.2-7.92c-3.49,0-6.63,0.95-8.84,2.48c-0.06-0.67-0.12-1.25-0.22-1.86c2.44-1.42,5.6-2.28,9.06-2.28
				c7.71,0,13.74,4.39,14.03,9.57c0.03,0.31,0.05,0.61,0.05,0.92c0,2.76-1.27,5.26-3.27,6.99L170.7,222.42"/>
			<path class="st30" d="M170.61,222.46c2.63-1.97,4.27-4.64,4.27-7.58c0-3.38-2.22-6.4-5.58-8.41c2.07,1.67,3.33,3.83,3.51,6.23
				c0.03,0.31,0.05,0.61,0.05,0.92c0,2.76-1.27,5.26-3.27,6.99L170.61,222.46"/>
			<path class="st30" d="M193.83,225.89c1.47-1.65,2.38-3.79,2.38-6.12c0-1.41-0.33-2.75-0.91-3.95c-2.14-4.38-8.82-7.57-16.76-7.57
				c-2.16,0-4.23,0.23-6.15,0.67c0.43,0.46,0.76,0.97,1.09,1.48c1.58-0.31,3.29-0.48,5.06-0.48c7.27,0,13.35,2.83,15.11,6.65
				c0.47,0.97,0.73,2.06,0.73,3.2c0,2.32-1.09,4.4-2.79,5.82l2.63,4.3l1.42-1.12L193.83,225.89z"/>
			<path class="st30" d="M191.14,211.48c1.91,1.21,3.36,2.69,4.16,4.34c0.58,1.2,0.91,2.54,0.91,3.95c0,2.33-0.91,4.47-2.38,6.12
				l1.6,2.59c1.53-1.96,2.41-4.26,2.41-6.7C197.84,217.58,195.17,213.91,191.14,211.48L191.14,211.48z"/>
			<ellipse class="st38" cx="146.05" cy="198.3" rx="4.43" ry="4.2"/>
			<path class="st3" d="M144.89,186.54v2.26h-2.42v2.3h2.42v3.15v3.46h-3.05c-0.03,0.21-0.22,0.37-0.22,0.59
				c0,0.58,0.12,1.14,0.35,1.64c0,0.02,0.02,0.02,0.03,0.03h8.12c0-0.01,0.02-0.01,0.03-0.03c0.22-0.5,0.35-1.06,0.35-1.64
				c0-0.22-0.19-0.38-0.22-0.59h-2.96v-3.43v-3.18h2.42v-2.3h-2.42v-2.26L144.89,186.54L144.89,186.54z"/>
		</g>
		<g>
			<ellipse class="st39" cx="146.04" cy="219.94" rx="1.91" ry="1.8"/>
			<ellipse class="st39" cx="146.04" cy="216.4" rx="1.91" ry="1.8"/>
			<ellipse class="st39" cx="146.04" cy="212.6" rx="1.52" ry="1.44"/>
			<ellipse class="st39" cx="146.04" cy="209.18" rx="1.1" ry="1.04"/>
			<ellipse class="st39" cx="146.04" cy="206.18" rx="0.88" ry="0.83"/>
			<ellipse class="st39" cx="94.94" cy="229.67" rx="1.1" ry="1.04"/>
			<ellipse class="st39" cx="93.44" cy="227.02" rx="1.1" ry="1.04"/>
			<ellipse class="st39" cx="92.44" cy="223.94" rx="1.1" ry="1.04"/>
			<ellipse class="st39" cx="92.31" cy="220.64" rx="1.1" ry="1.04"/>
			<ellipse class="st39" cx="93.12" cy="217.4" rx="1.1" ry="1.04"/>
			<ellipse class="st39" cx="94.81" cy="214.45" rx="1.1" ry="1.04"/>
			<ellipse class="st39" cx="97.06" cy="212.02" rx="1.1" ry="1.04"/>
			<ellipse class="st39" cx="99.68" cy="210.01" rx="1.1" ry="1.04"/>
			<ellipse class="st39" cx="102.8" cy="208.36" rx="1.1" ry="1.04"/>
			<ellipse class="st39" cx="106.04" cy="207.19" rx="1.1" ry="1.04"/>
			<ellipse class="st39" cx="109.66" cy="206.54" rx="1.1" ry="1.04"/>
			<ellipse class="st39" cx="113.1" cy="206.36" rx="1.1" ry="1.04"/>
			<ellipse class="st39" cx="116.47" cy="206.48" rx="1.1" ry="1.04"/>
			<ellipse class="st39" cx="120.21" cy="221.32" rx="1.1" ry="1.04"/>
			<ellipse class="st39" cx="118.34" cy="218.65" rx="1.1" ry="1.04"/>
			<ellipse class="st39" cx="117.35" cy="215.75" rx="1.1" ry="1.04"/>
			<ellipse class="st39" cx="117.47" cy="212.57" rx="1.1" ry="1.04"/>
			<ellipse class="st39" cx="118.16" cy="209.37" rx="1.1" ry="1.04"/>
			<ellipse class="st39" cx="119.84" cy="206.48" rx="1.1" ry="1.04"/>
			<ellipse class="st39" cx="122.4" cy="204.47" rx="1.1" ry="1.04"/>
			<ellipse class="st39" cx="125.39" cy="202.81" rx="1.1" ry="1.04"/>
			<ellipse class="st39" cx="128.7" cy="201.82" rx="1.1" ry="1.04"/>
			<ellipse class="st39" cx="132.13" cy="201.23" rx="1.1" ry="1.04"/>
			<ellipse class="st39" cx="135.5" cy="201.28" rx="1.1" ry="1.04"/>
			<ellipse class="st39" cx="138.99" cy="201.87" rx="1.1" ry="1.04"/>
			<ellipse class="st39" cx="142.23" cy="202.99" rx="1.1" ry="1.04"/>
			<ellipse class="st39" cx="149.8" cy="202.99" rx="1.1" ry="1.04"/>
			<ellipse class="st39" cx="153.04" cy="201.87" rx="1.1" ry="1.04"/>
			<ellipse class="st39" cx="156.54" cy="201.28" rx="1.1" ry="1.04"/>
			<ellipse class="st39" cx="159.9" cy="201.23" rx="1.1" ry="1.04"/>
			<ellipse class="st39" cx="163.34" cy="201.82" rx="1.1" ry="1.04"/>
			<ellipse class="st39" cx="166.64" cy="202.81" rx="1.1" ry="1.04"/>
			<ellipse class="st39" cx="169.64" cy="204.47" rx="1.1" ry="1.04"/>
			<ellipse class="st39" cx="172.19" cy="206.48" rx="1.1" ry="1.04"/>
			<ellipse class="st39" cx="173.88" cy="209.37" rx="1.1" ry="1.04"/>
			<ellipse class="st39" cx="174.57" cy="212.57" rx="1.1" ry="1.04"/>
			<ellipse class="st39" cx="174.69" cy="215.75" rx="1.1" ry="1.04"/>
			<ellipse class="st39" cx="173.69" cy="218.65" rx="1.1" ry="1.04"/>
			<ellipse class="st39" cx="171.83" cy="221.32" rx="1.1" ry="1.04"/>
			<ellipse class="st39" cx="175.57" cy="206.48" rx="1.1" ry="1.04"/>
			<ellipse class="st39" cx="178.94" cy="206.36" rx="1.1" ry="1.04"/>
			<ellipse class="st39" cx="182.38" cy="206.54" rx="1.1" ry="1.04"/>
			<ellipse class="st39" cx="186" cy="207.19" rx="1.1" ry="1.04"/>
			<ellipse class="st39" cx="189.24" cy="208.36" rx="1.1" ry="1.04"/>
			<ellipse class="st39" cx="192.36" cy="210.01" rx="1.1" ry="1.04"/>
			<ellipse class="st39" cx="194.97" cy="212.02" rx="1.1" ry="1.04"/>
			<ellipse class="st39" cx="197.22" cy="214.45" rx="1.1" ry="1.04"/>
			<ellipse class="st39" cx="198.91" cy="217.4" rx="1.1" ry="1.04"/>
			<ellipse class="st39" cx="199.72" cy="220.64" rx="1.1" ry="1.04"/>
			<ellipse class="st39" cx="199.6" cy="223.94" rx="1.1" ry="1.04"/>
			<ellipse class="st39" cx="198.6" cy="227.02" rx="1.1" ry="1.04"/>
			<ellipse class="st39" cx="197.1" cy="229.67" rx="1.1" ry="1.04"/>
		</g>
		<g>
			<path class="st30" d="M146.15,257.18c-12.26-0.02-23.25-1.47-31.09-3.83c-0.57-0.18-0.87-0.7-0.84-1.25
				c-0.01-0.52,0.29-1,0.84-1.17c7.84-2.36,18.83-3.81,31.09-3.83c12.27,0.02,23.25,1.47,31.09,3.83c0.55,0.17,0.84,0.65,0.83,1.17
				c0.03,0.55-0.27,1.07-0.83,1.25C169.4,255.71,158.42,257.16,146.15,257.18"/>
			<path class="st30" d="M146.07,247.09c-12.41,0.03-23.55,1.58-31.39,4c0.65-0.31,0.59-1.12-0.22-3.2c-0.98-2.53-2.5-2.42-2.5-2.42
				c8.66-2.56,20.73-4.16,34.16-4.18c13.44,0.02,25.6,1.62,34.27,4.18c0,0-1.53-0.11-2.51,2.42c-0.81,2.08-0.87,2.89-0.21,3.2
				C169.83,248.67,158.48,247.12,146.07,247.09"/>
			<path class="st30" d="M146.12,241.3c-13.43,0.02-25.5,1.62-34.16,4.18c-0.58,0.17-1.19-0.05-1.38-0.6s0.12-1.18,0.7-1.35
				c8.71-2.67,21.08-4.35,34.84-4.38c13.77,0.03,26.19,1.71,34.9,4.38c0.58,0.17,0.89,0.8,0.7,1.35s-0.8,0.77-1.38,0.6
				C171.67,242.92,159.56,241.32,146.12,241.3"/>
			<path class="st30" d="M146.2,230.78l1.23,0.22c-0.19,0.5-0.24,1.05-0.24,1.63c0,2.57,2.21,4.65,4.92,4.65
				c2.18,0,4.04-1.35,4.67-3.21c0.08,0.05,0.47-1.68,0.68-1.66c0.17,0.02,0.15,1.8,0.22,1.77c0.31,2.34,2.46,3.93,4.87,3.93
				c2.71,0,4.91-2.08,4.91-4.65c0-0.19-0.01-0.38-0.04-0.57l1.54-1.52l0.83,1.94c-0.33,0.61-0.46,1.3-0.46,2.03
				c0,2.46,2.1,4.44,4.69,4.44c1.63,0,3.06-0.78,3.9-1.97l0.99-1.25l-0.01,1.53c0,1.55,0.66,2.93,2.16,3.18c0,0,1.73,0.1,4.03-1.7
				c2.29-1.8,3.55-3.29,3.55-3.29l0.2,1.8c0,0-1.9,2.95-3.97,4.15c-1.14,0.66-2.86,1.35-4.23,1.13c-1.44-0.24-2.48-1.4-3.01-2.74
				c-1.03,0.61-2.25,0.97-3.55,0.97c-2.81,0-5.33-1.54-6.32-3.86c-1.29,1.4-3.09,2.25-5.2,2.25c-2.24,0-4.29-1.01-5.57-2.56
				c-1.27,1.16-2.98,1.87-4.88,1.87c-2.48,0-4.69-1.22-5.94-3.05c-1.25,1.83-3.46,3.05-5.94,3.05c-1.89,0-3.61-0.71-4.87-1.87
				c-1.28,1.55-3.34,2.56-5.58,2.56c-2.11,0-3.9-0.85-5.19-2.25c-1,2.32-3.52,3.86-6.32,3.86c-1.31,0-2.52-0.36-3.55-0.97
				c-0.54,1.34-1.57,2.5-3.02,2.74c-1.36,0.22-3.08-0.47-4.22-1.13c-2.08-1.2-3.98-4.15-3.98-4.15l0.2-1.8c0,0,1.27,1.49,3.56,3.29
				c2.29,1.81,4.02,1.7,4.02,1.7c1.51-0.25,2.16-1.63,2.16-3.18l-0.01-1.53l0.99,1.25c0.84,1.19,2.28,1.97,3.9,1.97
				c2.59,0,4.69-1.98,4.69-4.44c0-0.73-0.13-1.42-0.46-2.03l0.83-1.94l1.54,1.52c-0.02,0.19-0.04,0.38-0.04,0.57
				c0,2.57,2.2,4.65,4.91,4.65c2.42,0,4.56-1.59,4.88-3.93c0.06,0.03,0.05-1.75,0.22-1.77c0.2-0.02,0.6,1.71,0.67,1.66
				c0.64,1.86,2.49,3.21,4.68,3.21c2.71,0,4.91-2.08,4.91-4.65c0-0.58-0.03-1.13-0.24-1.63L146.2,230.78"/>
			<path class="st30" d="M104.37,237.32c-0.11-0.37-0.35-0.75-0.72-1.06c-0.79-0.68-1.84-0.79-2.36-0.25
				c-0.07,0.07-0.13,0.17-0.17,0.25c0,0-1.11-2.08-2.41-2.78c-1.29-0.7-3.49-0.52-3.49-0.52c0-1.6,1.3-2.89,2.99-2.89
				c0.99,0,1.92,0.41,2.48,1.11l0.23-1.07c0,0,1.36,0.27,1.98,1.82s-0.06,3.8-0.06,3.8s0.34-0.96,0.85-1.61
				c0.51-0.64,1.81-1.34,2.49-1.66c0.67-0.31,1.37-0.79,1.37-0.79s0.03,0.18,0.05,0.61c0.03,0.51-0.01,0.83-0.01,0.83
				c1.24-0.17,2.69,0.04,3.83,0.48c-0.49,0.95-1.41,1.84-2.62,2.3c0,0,0.44,0.36,0.83,0.75c0.34,0.34,0.44,0.49,0.44,0.49
				s-0.85,0.13-1.27,0.19c-0.43,0.05-1.84,0.28-2.69,0.22C105.49,237.5,104.79,237.4,104.37,237.32"/>
			<path class="st32" d="M101.29,236.01c0.52-0.54,1.57-0.43,2.36,0.25c0.8,0.67,1.02,1.66,0.51,2.19
				c-0.51,0.54-1.57,0.42-2.36-0.25C101.01,237.52,100.78,236.54,101.29,236.01"/>
			<path class="st39" d="M112.39,236.91c-0.28-0.83-0.03-1.65,0.57-1.83c0.6-0.19,1.32,0.33,1.6,1.16s0.03,1.65-0.57,1.84
				C113.39,238.26,112.68,237.74,112.39,236.91"/>
			<path class="st30" d="M122.12,232.86c-0.33-0.27-0.59-0.64-0.67-1.08s0.01-0.87,0.23-1.23c0,0-0.88-0.44-1.83-0.69
				c-0.72-0.19-1.99-0.2-2.37-0.2c-0.38-0.02-1.15-0.03-1.15-0.03s0.07,0.17,0.28,0.55c0.27,0.46,0.5,0.75,0.5,0.75
				c-1.27,0.29-2.35,1.12-3.03,2.09c0.99,0.68,2.3,1.1,3.6,0.97c0,0-0.12,0.34-0.2,0.86c-0.06,0.43-0.06,0.61-0.06,0.61
				s0.71-0.26,1.07-0.39c0.35-0.13,1.54-0.55,2.15-0.96C121.44,233.57,122.12,232.86,122.12,232.86"/>
			<path class="st30" d="M121.68,222.65c1.06,0.67,1.98,1.79,2.3,3.03c0,0,0.13-0.25,0.71-0.59c0.59-0.33,1.09-0.32,1.09-0.32
				s-0.17,0.97-0.25,1.32c-0.09,0.34-0.09,1.38-0.32,2.32c-0.23,0.93-0.63,1.68-0.63,1.68c-0.42-0.34-0.99-0.51-1.58-0.41
				c-0.58,0.1-1.06,0.44-1.32,0.9c0,0-0.66-0.58-1.21-1.38c-0.55-0.81-0.93-1.78-1.13-2.08c-0.21-0.3-0.72-1.15-0.72-1.15
				s0.47-0.18,1.14-0.05c0.67,0.12,0.88,0.32,0.88,0.32C120.5,224.96,120.92,223.62,121.68,222.65"/>
			<path class="st30" d="M124.97,232.38c0.22-0.35,0.32-0.79,0.24-1.23s-0.32-0.81-0.66-1.07c0,0,0.67-0.71,1.47-1.26
				c0.6-0.41,1.8-0.82,2.15-0.95c0.36-0.13,1.07-0.4,1.07-0.4s0,0.18-0.06,0.61c-0.08,0.52-0.2,0.87-0.2,0.87
				c1.3-0.14,2.62,0.29,3.61,0.98c-0.69,0.97-1.77,1.79-3.04,2.08c0,0,0.23,0.28,0.5,0.74c0.21,0.39,0.28,0.56,0.28,0.56
				s-0.77-0.02-1.15-0.03c-0.38,0-1.65-0.01-2.37-0.2c-0.95-0.25-1.84-0.69-1.84-0.69"/>
			<ellipse class="st32" cx="123.37" cy="231.45" rx="2.17" ry="2.06"/>
			<path class="st39" d="M133.76,232.77c-0.11-0.87,0.31-1.63,0.93-1.7c0.63-0.07,1.23,0.57,1.34,1.44c0.11,0.86-0.3,1.63-0.93,1.7
				C134.48,234.28,133.88,233.64,133.76,232.77"/>
			<path class="st30" d="M144.5,230.83c-0.32-0.36-0.53-0.82-0.53-1.33c0-0.5,0.19-0.97,0.51-1.32c0,0-0.89-0.67-1.89-1.12
				c-0.77-0.35-2.18-0.59-2.6-0.67c-0.43-0.08-1.28-0.24-1.28-0.24s0.04,0.2,0.2,0.67c0.2,0.56,0.4,0.93,0.4,0.93
				c-1.47,0.08-2.85,0.81-3.81,1.76c0.96,0.94,2.34,1.66,3.81,1.75c0,0-0.2,0.36-0.4,0.93c-0.16,0.46-0.2,0.67-0.2,0.67
				s0.85-0.16,1.28-0.24c0.42-0.08,1.83-0.32,2.6-0.67c1-0.46,1.91-1.11,1.91-1.11"/>
			<path class="st30" d="M146.11,219.36c1.05,0.95,1.85,2.36,1.95,3.82c0,0,0.19-0.27,0.91-0.53c0.73-0.26,1.28-0.16,1.28-0.16
				s-0.39,1.05-0.55,1.42c-0.17,0.37-0.39,1.53-0.84,2.53c-0.44,1-1.05,1.76-1.05,1.76c-0.4-0.45-1-0.75-1.67-0.75
				c-0.68,0-1.27,0.3-1.67,0.75c0,0-0.61-0.76-1.05-1.76c-0.45-1-0.67-2.16-0.84-2.53s-0.56-1.42-0.56-1.42s0.56-0.1,1.28,0.16
				s0.92,0.53,0.92,0.53C144.32,221.72,145.08,220.31,146.11,219.36"/>
			<path class="st30" d="M147.76,230.83c0.33-0.36,0.53-0.82,0.53-1.33c0-0.5-0.19-0.97-0.51-1.32c0,0,0.89-0.67,1.9-1.12
				c0.76-0.35,2.17-0.59,2.6-0.67c0.42-0.08,1.26-0.24,1.26-0.24s-0.02,0.2-0.19,0.67c-0.2,0.56-0.4,0.93-0.4,0.93
				c1.47,0.08,2.86,0.81,3.81,1.76c-0.95,0.94-2.33,1.66-3.81,1.75c0,0,0.2,0.36,0.4,0.93c0.16,0.46,0.19,0.67,0.19,0.67l-1.26-0.24
				c-0.43-0.08-1.84-0.32-2.6-0.67c-1.01-0.46-1.92-1.11-1.92-1.11"/>
			<ellipse class="st32" cx="146.14" cy="229.5" rx="2.17" ry="2.06"/>
			<path class="st39" d="M158.58,232.77c0.11-0.87-0.3-1.63-0.93-1.7s-1.23,0.57-1.34,1.44c-0.11,0.86,0.31,1.63,0.93,1.7
				C157.87,234.28,158.47,233.64,158.58,232.77"/>
			<path class="st30" d="M167.38,232.38c-0.22-0.35-0.32-0.79-0.25-1.23c0.09-0.44,0.33-0.81,0.67-1.07c0,0-0.67-0.71-1.47-1.26
				c-0.61-0.41-1.8-0.82-2.16-0.95c-0.35-0.13-1.06-0.4-1.06-0.4s-0.01,0.18,0.06,0.61c0.08,0.52,0.19,0.87,0.19,0.87
				c-1.29-0.14-2.61,0.29-3.6,0.98c0.68,0.97,1.77,1.79,3.03,2.08c0,0-0.23,0.28-0.49,0.74c-0.22,0.39-0.28,0.56-0.28,0.56
				l1.14-0.03c0.38,0,1.66-0.01,2.37-0.2c0.95-0.25,1.84-0.69,1.84-0.69"/>
			<path class="st30" d="M170.67,222.65c-1.06,0.67-1.98,1.79-2.31,3.03c0,0-0.12-0.25-0.71-0.59c-0.58-0.33-1.09-0.32-1.09-0.32
				s0.17,0.97,0.26,1.32c0.09,0.34,0.09,1.38,0.31,2.32c0.23,0.93,0.64,1.68,0.64,1.68c0.42-0.34,0.99-0.51,1.57-0.41
				c0.59,0.1,1.06,0.44,1.33,0.9c0,0,0.66-0.58,1.21-1.38c0.54-0.81,0.92-1.78,1.12-2.08c0.21-0.3,0.72-1.15,0.72-1.15
				s-0.47-0.18-1.14-0.05c-0.67,0.12-0.88,0.32-0.88,0.32C171.85,224.96,171.42,223.62,170.67,222.65"/>
			<path class="st30" d="M170.22,232.86c0.34-0.27,0.6-0.64,0.67-1.08c0.09-0.44,0-0.87-0.22-1.23c0,0,0.88-0.44,1.83-0.69
				c0.72-0.19,1.99-0.2,2.36-0.2c0.39-0.02,1.15-0.03,1.15-0.03s-0.06,0.17-0.28,0.55c-0.26,0.46-0.49,0.75-0.49,0.75
				c1.26,0.29,2.34,1.12,3.03,2.09c-0.99,0.68-2.31,1.1-3.6,0.97c0,0,0.11,0.34,0.19,0.86c0.06,0.43,0.06,0.61,0.06,0.61
				s-0.71-0.26-1.06-0.39c-0.36-0.13-1.55-0.55-2.16-0.96C170.91,233.57,170.22,232.86,170.22,232.86"/>
			<ellipse class="st32" cx="168.98" cy="231.45" rx="2.17" ry="2.06"/>
			<path class="st39" d="M179.96,236.91c0.28-0.83,0.03-1.65-0.57-1.83c-0.6-0.19-1.32,0.33-1.61,1.16
				c-0.28,0.83-0.03,1.65,0.57,1.84C178.95,238.26,179.67,237.74,179.96,236.91"/>
			<path class="st30" d="M187.97,237.32c0.11-0.37,0.36-0.75,0.72-1.06c0.79-0.68,1.85-0.79,2.36-0.25
				c0.07,0.07,0.14,0.17,0.18,0.25c0,0,1.1-2.08,2.4-2.78s3.5-0.52,3.5-0.52c0-1.6-1.31-2.89-3-2.89c-0.99,0-1.92,0.41-2.47,1.11
				l-0.23-1.07c0,0-1.36,0.27-1.98,1.82s0.05,3.8,0.05,3.8s-0.33-0.96-0.84-1.61c-0.51-0.64-1.81-1.34-2.49-1.66
				c-0.68-0.31-1.37-0.79-1.37-0.79s-0.03,0.18-0.06,0.61c-0.02,0.51,0.02,0.83,0.02,0.83c-1.25-0.17-2.7,0.04-3.83,0.48
				c0.48,0.95,1.4,1.84,2.61,2.3c0,0-0.43,0.36-0.83,0.75c-0.33,0.34-0.43,0.49-0.43,0.49s0.85,0.13,1.27,0.19
				c0.43,0.05,1.84,0.28,2.68,0.22C186.86,237.5,187.55,237.4,187.97,237.32"/>
			<path class="st32" d="M191.05,236.01c-0.51-0.54-1.57-0.43-2.36,0.25c-0.79,0.67-1.02,1.66-0.51,2.19
				c0.51,0.54,1.57,0.42,2.36-0.25C191.33,237.52,191.56,236.54,191.05,236.01"/>
		</g>
		<g>
			<path class="st33" d="M146.12,255.57c-11.06-0.01-21.07-1.29-28.68-3.26c7.61-1.97,17.62-3.17,28.68-3.19
				c11.07,0.02,21.13,1.22,28.74,3.19C167.25,254.28,157.19,255.56,146.12,255.57L146.12,255.57z"/>
			<path class="st15" d="M154.04,255.28v-6.01 M151.02,255.48l0.04-6.37 M148.82,255.56v-6.49"/>
			<path class="st19" d="M146.95,255.64v-6.57"/>
			<path class="st24" d="M145.16,255.64v-6.57"/>
			<path class="st26" d="M143.48,255.64v-6.57"/>
			<path class="st40" d="M141.81,255.64v-6.57"/>
			<path class="st41" d="M140.32,255.64v-6.57"/>
			<path class="st42" d="M137.48,255.28l-0.04-5.97 M138.83,255.36v-6.25"/>
			<path class="st43" d="M134.86,255.01v-5.5 M136.19,255.17l-0.04-5.86"/>
			<path class="st44" d="M131.35,254.7v-4.84 M132.5,254.78v-5.08 M133.69,254.94v-5.28"/>
			<path class="st45" d="M130.12,254.66v-4.68"/>
			<path class="st46" d="M128.97,254.42v-4.36"/>
			<path class="st47" d="M127.74,254.31v-4.06"/>
			<path class="st48" d="M125.22,253.95l-0.04-3.22 M126.51,254.11v-3.62"/>
			<path class="st49" d="M123.93,253.68v-2.84"/>
			<path class="st50" d="M122.74,253.45v-2.36"/>
			<path class="st51" d="M121.45,253.13v-1.85"/>
			<path class="st52" d="M120.12,252.98v-1.38"/>
			<path class="st53" d="M118.72,252.66v-0.67"/>
			<path class="st31" d="M116.12,252.66c7.75-2.18,18.29-3.52,30-3.54c11.72,0.02,22.31,1.36,30.06,3.54"/>
			<path class="st32" d="M112.72,248.16l1.22-1.59l3.37,0.43l-2.69,1.96L112.72,248.16"/>
			<path class="st39" d="M120.03,246.28c0-0.58,0.49-1.04,1.1-1.04s1.1,0.46,1.1,1.04c0,0.57-0.49,1.04-1.1,1.04
				S120.03,246.85,120.03,246.28"/>
			<path class="st54" d="M129.64,246.07l-2.36,0.27c-0.61,0.07-1.17-0.33-1.24-0.9c-0.08-0.57,0.35-1.09,0.96-1.15l2.37-0.28
				l2.42-0.28c0.6-0.07,1.15,0.33,1.22,0.9s-0.36,1.09-0.96,1.16L129.64,246.07"/>
			<path class="st39" d="M136.54,244.35c0-0.58,0.49-1.04,1.1-1.04c0.6,0,1.1,0.46,1.1,1.04c0,0.57-0.5,1.04-1.1,1.04
				C137.03,245.39,136.54,244.92,136.54,244.35"/>
			<path class="st32" d="M146.15,245.16h-3.29c-0.6,0-1.11-0.46-1.11-1.03c0-0.58,0.49-1.04,1.1-1.04h6.64c0.61,0,1.1,0.46,1.1,1.04
				c0,0.57-0.51,1.03-1.11,1.03H146.15"/>
			<path class="st39" d="M153.56,244.35c0-0.58,0.5-1.04,1.1-1.04c0.61,0,1.1,0.46,1.1,1.04c0,0.57-0.49,1.04-1.1,1.04
				C154.06,245.39,153.56,244.92,153.56,244.35"/>
			<path class="st54" d="M162.66,246.07l2.36,0.27c0.6,0.07,1.17-0.33,1.24-0.9s-0.36-1.09-0.96-1.15l-2.37-0.28l-2.42-0.28
				c-0.61-0.07-1.15,0.33-1.22,0.9c-0.08,0.57,0.36,1.09,0.96,1.16L162.66,246.07"/>
			<path class="st39" d="M170.07,246.28c0-0.58,0.49-1.04,1.1-1.04s1.1,0.46,1.1,1.04c0,0.57-0.49,1.04-1.1,1.04
				S170.07,246.85,170.07,246.28"/>
			<path class="st32" d="M179.57,248.16l-1.21-1.59l-3.37,0.43l2.69,1.96L179.57,248.16"/>
		</g>
	</g>
	<g id="shield">
		<g id="Granada">
			<path class="st55" d="M146.49,375.33c-13.08,0-26.05-3.2-36.95-8.54c-8.03-3.98-13.36-12-13.36-21.19v-33.3H196.6v33.3
				c0,9.19-5.32,17.21-13.36,21.19C172.34,372.13,159.58,375.33,146.49,375.33L146.49,375.33z"/>
			<path class="st56" d="M148.91,360.55c2.09,0.63,3.15,2.19,3.15,4.01c0,2.38-2.3,4.18-5.3,4.18c-2.99,0-5.42-1.8-5.42-4.18
				c0-1.79,1-3.8,3.08-3.94c0,0-0.06-0.19-0.24-0.5c-0.22-0.23-0.64-0.66-0.64-0.66s0.79-0.15,1.25,0.02
				c0.46,0.18,0.77,0.47,0.77,0.47s0.21-0.43,0.52-0.76c0.3-0.33,0.7-0.53,0.7-0.53s0.46,0.38,0.61,0.64
				c0.15,0.27,0.25,0.59,0.25,0.59s0.42-0.35,0.79-0.49c0.37-0.15,0.84-0.26,0.84-0.26s-0.13,0.46-0.22,0.69
				S148.91,360.55,148.91,360.55"/>
			<path class="st57" d="M146.32,371.32c0,0-3.98-2.68-5.7-3.04c-2.21-0.47-4.69-0.09-5.76-0.15c0.03,0.03,1.29,0.93,1.84,1.48
				s2.39,1.65,3.43,1.91C143.35,372.33,146.32,371.32,146.32,371.32"/>
			<path class="st57" d="M147.46,371.56c0,0,2.54-2.66,5.21-3.02c3.15-0.44,5.22,0.26,6.44,0.58c0.03,0-1.01,0.49-1.56,0.87
				c-0.55,0.37-1.97,1.57-4.14,1.59c-2.18,0.03-4.58-0.23-4.97-0.17C148.04,371.47,147.46,371.56,147.46,371.56"/>
			<path class="st58" d="M146.69,368.28c-1-0.93-1.62-2.25-1.62-3.72c0-1.46,0.62-2.78,1.63-3.71c0.99,0.93,1.61,2.25,1.61,3.71
				C148.31,366.03,147.69,367.35,146.69,368.28"/>
			<path class="st57" d="M145.68,373.71c0,0,0.61-1.52,0.67-2.83c0.06-1.09-0.15-2.17-0.15-2.17h0.52H147c0,0,0.39,1.16,0.39,2.17
				c0,1.02-0.18,2.37-0.18,2.37s-0.55,0.08-0.73,0.17C146.29,373.51,145.68,373.71,145.68,373.71"/>
		</g>
		<g id="Aragon">
			<path class="st58" d="M146.32,345.57c0,13.16-11.16,23.82-25.05,23.82s-25.15-10.66-25.15-23.82v-33.35h50.2V345.57"/>
			<path class="st59" d="M96.03,345.12c0.15,7.02,2.95,12.25,5.73,15.67v-49.47H96.1L96.03,345.12L96.03,345.12z"/>
			<path class="st59" d="M107.08,365.23c1.57,0.83,3.72,2.22,6.03,2.77l-0.15-56.96h-5.88V365.23z"/>
			<path class="st59" d="M118.28,369.25c2.3,0.23,4.01,0.19,5.87,0v-58.21h-5.87V369.25z"/>
			<path class="st59" d="M129.32,368c2.3-0.46,4.9-1.89,6.03-2.63v-54.33h-5.88L129.32,368L129.32,368z"/>
			<path class="st59" d="M140.81,360.24c2.45-2.18,4.75-7.12,5.59-12.76l0.14-36.44h-5.87L140.81,360.24z"/>
		</g>
		<g id="Navarre">
			<path class="st58" d="M196.65,312.22v33.35c0,13.16-11.28,23.82-25.17,23.82c-13.9,0-25.16-10.66-25.16-23.82v-33.35H196.65"/>
			<path id="chains_half" class="st60" d="M168.71,337.14c0.05-0.14,0.12-0.27,0.19-0.4l-4.26-4.74l-1.67,0.72l-3.06-3.39l1-1.46
				l-5.34-5.99c-0.07,0.02-0.2,0.02-0.27,0.04l0.03,4.02l1.75,0.5v4.46l-1.75,0.48l-0.03,4.08c0.84,0.26,1.48,0.88,1.74,1.67
				l3.21,0.01l0.51-1.67h4.72l0.5,1.67L168.71,337.14z M161.73,318.64v1.61h2.76v-1.61H161.73z M154.43,339.01
				c0.64,0,1.16-0.49,1.16-1.1s-0.52-1.11-1.16-1.11c-0.65,0-1.17,0.5-1.17,1.11S153.78,339.01,154.43,339.01z M170.42,329.28
				l-1.76-0.48v-4.46l1.76-0.5l-0.01-1.92c-0.85-0.25-1.51-0.87-1.79-1.67h-2.68l-0.51,1.67h-4.71l-0.51-1.67h-3.09
				c-0.08,0.22-0.17,0.42-0.29,0.61l5.38,5.96l1.67-0.71l3.06,3.4l-1,1.45l4.18,4.64c0.09-0.04,0.18-0.08,0.28-0.12L170.42,329.28z
				 M163.17,327.89l-1.29,1.04l1.77,1.98l1.29-1.05L163.17,327.89z M171.174,364.076c-1.24-0.065-2.255-0.902-2.514-2.016
				c-1.67-0.23-3.25-0.66-4.73-1.3l0.84-1.43c1.29,0.55,2.66,0.91,4.08,1.11c0.31-0.66,0.86-1.16,1.58-1.4l0.01-5.62l-1.76-0.49
				v-4.46l1.76-0.48v-7.64c-0.07-0.02-0.13-0.05-0.2-0.09l-3.98,4.42l1,1.44l-3.06,3.4l-1.67-0.71l-3.3,3.67
				c0.57,0.87,0.55,2-0.11,2.85c0.94,1.05,2.03,1.98,3.24,2.75l-0.84,1.44c-1.42-0.89-2.7-1.99-3.79-3.22
				c-0.87,0.26-1.86,0.11-2.6-0.5c-1.15-0.93-1.29-2.56-0.3-3.64l0.14-0.16c-0.69-1.56-1.16-3.24-1.32-5l1.71,0.01
				c0.14,1.5,0.51,2.93,1.09,4.27c0.49-0.06,1-0.01,1.46,0.16l3.32-3.68l-1-1.45l3.06-3.4l1.67,0.72l3.99-4.43
				c-0.09-0.14-0.15-0.29-0.21-0.46l-2.76,0.01l-0.5,1.67h-4.72l-0.51-1.67l-3.24-0.01c-0.27,0.76-0.9,1.36-1.69,1.62l-0.01,4.04
				l-1.71-0.01v-4.01c-1.1-0.33-1.91-1.31-1.91-2.47c0-1.15,0.82-2.15,1.92-2.48l0.01-4.05l-1.76-0.48v-4.46l1.76-0.5v-4.05
				c-1.08-0.35-1.84-1.32-1.84-2.45c0-1.43,1.22-2.58,2.73-2.58c1.22,0,2.25,0.74,2.61,1.78h3.09l0.51-1.67h4.71l0.51,1.67h2.68
				c0.357-1.031,1.363-1.767,2.559-1.78l0.071,8.37h-0.85v2.61h0.845l-0.021,21.59h-0.784v2.61h0.779L171.174,364.076z
				 M165.26,345.77l-1.29-1.04l-1.78,1.98l1.29,1.04L165.26,345.77z M155.3,327.33h-1.69l-0.01,2.61h1.7V327.33z M164.46,338.74
				v-1.6h-2.85v1.6H164.46z M153.86,348.43l-1.76-0.39l-0.25-4.45l1.75-0.58v2.56C153.6,346.56,153.69,347.49,153.86,348.43
				L153.86,348.43z M155.32,342.91l1.75,0.41c0,0,0.09,2.87,0.05,2.22c-0.04-0.74,0.19,2.24,0.19,2.24l-1.76,0.58
				c-0.18-0.9-0.24-1.84-0.24-2.79L155.32,342.91z M166.13,359.84l0.39-1.7c-1.52-0.48-2.93-1.18-4.17-2.09l-1.26,1.11
				C162.57,358.31,164.28,359.24,166.13,359.84L166.13,359.84z M165.28,361.28l-1.3,1.22c-1.47-0.54-2.86-1.26-4.12-2.11l0.38-1.77
				C161.74,359.75,163.45,360.65,165.28,361.28L165.28,361.28z"/>
			<g transform="matrix(-1,0,0,1,550.43,0)">
				<path id="chains_half_1_" class="st60" d="M173.72,337.14c-0.05-0.14-0.12-0.27-0.19-0.4l4.26-4.74l1.67,0.72l3.06-3.39l-1-1.46
					l5.34-5.99c0.07,0.02,0.2,0.02,0.27,0.04l-0.03,4.02l-1.75,0.5v4.46l1.75,0.48l0.03,4.08c-0.84,0.26-1.48,0.88-1.74,1.67
					l-3.21,0.01l-0.51-1.67h-4.72l-0.5,1.67L173.72,337.14z M180.7,318.64v1.61h-2.76v-1.61H180.7z M188,339.01
					c-0.64,0-1.16-0.49-1.16-1.1s0.52-1.11,1.16-1.11c0.65,0,1.17,0.5,1.17,1.11S188.65,339.01,188,339.01z M172.01,329.28
					l1.76-0.48v-4.46l-1.76-0.5l0.01-1.92c0.85-0.25,1.51-0.87,1.79-1.67h2.68l0.51,1.67h4.71l0.51-1.67h3.09
					c0.08,0.22,0.17,0.42,0.29,0.61l-5.38,5.96l-1.67-0.71l-3.06,3.4l1,1.45l-4.18,4.64c-0.09-0.04-0.18-0.08-0.28-0.12
					L172.01,329.28z M179.26,327.89l1.29,1.04l-1.77,1.98l-1.29-1.05L179.26,327.89z M171.256,364.076
					c1.24-0.065,2.255-0.902,2.514-2.016c1.67-0.23,3.25-0.66,4.73-1.3l-0.84-1.43c-1.29,0.55-2.66,0.91-4.08,1.11
					c-0.31-0.66-0.86-1.16-1.58-1.4l-0.01-5.62l1.76-0.49v-4.46l-1.76-0.48v-7.64c0.07-0.02,0.13-0.05,0.2-0.09l3.98,4.42l-1,1.44
					l3.06,3.4l1.67-0.71l3.3,3.67c-0.57,0.87-0.55,2,0.11,2.85c-0.94,1.05-2.03,1.98-3.24,2.75l0.84,1.44
					c1.42-0.89,2.7-1.99,3.79-3.22c0.87,0.26,1.86,0.11,2.6-0.5c1.15-0.93,1.29-2.56,0.3-3.64l-0.14-0.16
					c0.69-1.56,1.16-3.24,1.32-5l-1.71,0.01c-0.14,1.5-0.51,2.93-1.09,4.27c-0.49-0.06-1-0.01-1.46,0.16l-3.32-3.68l1-1.45
					l-3.06-3.4l-1.67,0.72l-3.99-4.43c0.09-0.14,0.15-0.29,0.21-0.46l2.76,0.01l0.5,1.67h4.72l0.51-1.67l3.24-0.01
					c0.27,0.76,0.9,1.36,1.69,1.62l0.01,4.04l1.71-0.01v-4.01c1.1-0.33,1.91-1.31,1.91-2.47c0-1.15-0.82-2.15-1.92-2.48l-0.01-4.05
					l1.76-0.48v-4.46l-1.76-0.5v-4.05c1.08-0.35,1.84-1.32,1.84-2.45c0-1.43-1.22-2.58-2.73-2.58c-1.22,0-2.25,0.74-2.61,1.78h-3.09
					l-0.51-1.67H177l-0.51,1.67h-2.68c-0.357-1.031-1.363-1.767-2.559-1.78l-0.071,8.37h0.85v2.61h-0.845l0.021,21.59h0.784v2.61
					h-0.779L171.256,364.076z M177.17,345.77l1.29-1.04l1.78,1.98l-1.29,1.04L177.17,345.77z M187.13,327.33h1.69l0.01,2.61h-1.7
					V327.33z M177.97,338.74v-1.6h2.85v1.6H177.97z M188.57,348.43l1.76-0.39l0.25-4.45l-1.75-0.58v2.56
					C188.83,346.56,188.74,347.49,188.57,348.43L188.57,348.43z M187.11,342.91l-1.75,0.41c0,0-0.09,2.87-0.05,2.22
					c0.04-0.74-0.19,2.24-0.19,2.24l1.76,0.58c0.18-0.9,0.24-1.84,0.24-2.79L187.11,342.91z M176.3,359.84l-0.39-1.7
					c1.52-0.48,2.93-1.18,4.17-2.09l1.26,1.11C179.86,358.31,178.15,359.24,176.3,359.84L176.3,359.84z M177.15,361.28l1.3,1.22
					c1.47-0.54,2.86-1.26,4.12-2.11l-0.38-1.77C180.69,359.75,178.98,360.65,177.15,361.28L177.15,361.28z"/>
			</g>
			<path class="st61" d="M168.59,337.94c0-1.44,1.23-2.6,2.74-2.6s2.73,1.16,2.73,2.6c0,1.43-1.22,2.58-2.73,2.58
				S168.59,339.37,168.59,337.94"/>
		</g>
		<g id="Castile">
			<path class="st58" d="M96.12,312.25h50.18v-55.72H96.12V312.25z"/>
			<path class="st62" d="M113.34,269.41h-0.92v-0.92h-1.62v3.69h1.62v2.55h-3.47v7.39h1.85v14.79h-3.7v7.63h28.42v-7.63h-3.69
				v-14.79h1.85v-7.39h-3.47v-2.55h1.62v-3.69h-1.62v0.92h-0.93v-0.92h-1.61v0.92h-1.16v-0.92h-1.62v3.69h1.62v2.55h-3.46v-8.09
				h1.84v-3.7h-1.84v0.93h-0.93v-0.93h-1.62v0.93h-0.92v-0.93h-1.85v3.7h1.85v8.09h-3.47v-2.55h1.62v-3.69h-1.62v0.92h-0.92v-0.92
				h-1.85L113.34,269.41L113.34,269.41z M107.1,304.54h28.42 M107.1,302.69h28.42 M107.1,300.84h28.42 M107.1,298.99h28.42
				 M107.1,296.91h28.42 M110.8,295.29h21.03 M110.8,293.44h21.03 M110.8,291.36h21.03 M110.8,289.52h21.03 M110.8,287.67h21.03
				 M110.8,285.82h21.03 M110.8,283.97h21.03 M108.95,282.12h24.73 M108.95,280.27h24.73 M108.95,278.42h24.73 M108.95,276.58h24.73
				 M112.42,274.73h17.79 M119.58,272.88h3.47 M119.58,271.03h3.47 M119.58,269.18h3.47 M119.58,267.33h3.47 M117.73,265.02h7.16
				 M112.42,272.88h3.69 M110.8,270.57h6.93 M110.8,304.54v-1.85 M110.8,300.84v-1.85 M108.95,300.84v1.85 M112.42,302.69v-1.85
				 M114.26,304.54v-1.85 M114.26,300.84v-1.85 M114.26,296.91v-1.62 M114.26,293.44v-2.08 M112.42,298.99v-2.08 M108.95,298.99
				v-2.08 M116.11,296.91v2.08 M117.73,296.91v-1.62 M112.42,293.44v1.85 M116.11,293.44v1.85 M119.58,293.44v1.85 M117.73,293.44
				v-2.08 M119.58,289.52v1.84 M119.58,285.82v1.85 M117.73,283.97v1.85 M119.58,282.12v1.85 M116.11,282.12v1.85 M112.42,282.12
				v1.85 M110.8,280.27v1.85 M114.26,280.27v1.85 M117.73,280.27v1.85 M119.58,278.42v1.85 M116.11,278.42v1.85 M112.42,278.42v1.85
				 M110.8,276.58v1.84 M117.73,276.58v1.84 M114.26,272.88v1.85 M130.21,272.88h-3.7 M131.83,270.57h-6.94 M131.83,304.54v-1.85
				 M131.83,300.84v-1.85 M133.68,300.84v1.85 M130.21,302.69v-1.85 M128.36,304.54v-1.85 M128.36,300.84v-1.85 M128.36,296.91
				v-1.62 M128.36,293.44v-2.08 M130.21,298.99v-2.08 M133.68,298.99v-2.08 M126.51,296.91v2.08 M124.89,296.91v-1.62
				 M130.21,293.44v1.85 M126.51,293.44v1.85 M123.05,293.44v1.85 M124.89,293.44v-2.08 M123.05,289.52v1.84 M123.05,285.82v1.85
				 M124.89,283.97v1.85 M123.05,282.12v1.85 M126.51,282.12v1.85 M130.21,282.12v1.85 M131.83,280.27v1.85 M128.36,280.27v1.85
				 M124.89,280.27v1.85 M123.05,278.42v1.85 M126.51,278.42v1.85 M130.21,278.42v1.85 M131.83,276.58v1.84 M124.89,276.58v1.84
				 M128.36,272.88v1.85 M121.2,293.44v-2.08 M121.2,285.82v-1.85 M121.2,289.52v-1.85 M121.2,282.12v-1.85 M121.2,278.42v-1.84
				 M121.2,272.88v-1.85 M121.2,269.18v-1.85 M112.42,272.18h3.69 M119.58,266.64h3.47 M126.51,272.18h3.7"/>
			<path class="st62" d="M126.05,304.54v-4.86c0-0.92-0.46-3.7-4.85-3.7c-4.16,0-4.62,2.78-4.62,3.7v4.86H126.05z"/>
			<path class="st62" d="M118.19,299.91l-2.31-0.23c0-0.92,0.23-2.31,0.93-2.77l2.08,1.62
				C118.66,298.76,118.19,299.45,118.19,299.91z"/>
			<path class="st62" d="M122.12,297.6l1.16-2.08c-0.46-0.23-1.39-0.46-2.08-0.46c-0.46,0-1.39,0.23-1.85,0.46l1.15,2.08H122.12
				L122.12,297.6z"/>
			<path class="st62" d="M124.43,299.91l2.31-0.23c0-0.92-0.23-2.31-0.92-2.77l-2.08,1.62
				C123.97,298.76,124.43,299.45,124.43,299.91z"/>
			<path class="st62" d="M117.73,291.83v-5.09c0-1.38-0.92-2.54-2.54-2.54s-2.54,1.16-2.54,2.54v5.09H117.73L117.73,291.83z"/>
			<path class="st62" d="M124.89,291.83v-5.09c0-1.38,0.93-2.54,2.55-2.54c1.61,0,2.54,1.16,2.54,2.54v5.09H124.89z"/>
			<path class="st62" d="M116.11,279.35l0.23-4.62h-4.39l0.47,4.62H116.11z"/>
			<path class="st62" d="M123.05,279.35l0.46-4.62h-4.39l0.23,4.62H123.05z"/>
			<path class="st62" d="M126.51,279.35l-0.46-4.62h4.62l-0.46,4.62H126.51L126.51,279.35z"/>
			<g>
				<path class="st63" d="M124.43,304.54v-4.16c0-0.7-0.46-2.78-3.23-2.78c-2.54,0-3.01,2.08-3.01,2.78v4.16H124.43L124.43,304.54z"
					/>
				<path class="st63" d="M117.27,291.36v-4.39c0-1.15-0.69-2.31-2.08-2.31s-2.08,1.16-2.08,2.31v4.39H117.27z"/>
				<path class="st63" d="M125.36,291.36v-4.39c0-1.15,0.69-2.31,2.08-2.31c1.38,0,2.08,1.16,2.08,2.31v4.39H125.36z"/>
			</g>
		</g>
		<g id="Leon">
			<path class="st55" d="M146.28,312.25h50.32v-55.72h-50.32V312.25z"/>
			<path class="st64" d="M171.93,270.26l0.05-0.62l0.09-0.34c0,0-1.61,0.13-2.46-0.11s-1.61-0.59-2.4-1.25
				c-0.79-0.68-1.1-1.1-1.67-1.18c-1.36-0.22-2.4,0.4-2.4,0.4s1.02,0.37,1.78,1.31s1.59,1.41,1.95,1.53
				c0.59,0.18,2.66,0.05,3.22,0.07C170.66,270.1,171.93,270.26,171.93,270.26L171.93,270.26z"/>
			<g>
				<path class="st65" d="M179.46,268c0,0,0.01,0.72,0.08,1.4c0.06,0.67-0.22,1.24-0.11,1.61s0.16,0.66,0.3,0.93
					c0.14,0.26,0.21,0.94,0.21,0.94s-0.38-0.28-0.74-0.54c-0.35-0.27-0.6-0.44-0.6-0.44s0.07,0.72,0.1,1.03
					c0.04,0.31,0.22,0.89,0.51,1.24c0.29,0.33,0.87,0.89,1.05,1.33c0.18,0.45,0.14,1.44,0.14,1.44s-0.46-0.75-0.87-0.89
					c-0.39-0.14-1.26-0.62-1.26-0.62s0.79,0.79,0.79,1.55c0,0.75-0.32,1.6-0.32,1.6s-0.36-0.68-0.83-1.12
					c-0.47-0.45-1.13-0.9-1.13-0.9s0.52,1.17,0.52,1.95c0,0.79-0.15,2.47-0.15,2.47s-0.39-0.64-0.79-0.96
					c-0.4-0.31-0.87-0.58-1.02-0.78c-0.14-0.21,0.48,0.64,0.54,1.16c0.07,0.51,0.32,2.35,1.92,4.69c0.94,1.37,2.39,3.77,5.5,2.98
					c3.11-0.78,1.96-4.97,1.3-6.92c-0.65-1.95-0.98-4.11-0.94-4.87c0.04-0.75,0.58-2.97,0.51-3.39c-0.07-0.41-0.24-2,0.14-3.28
					c0.4-1.33,0.73-1.85,0.95-2.4c0.21-0.55,0.39-0.86,0.46-1.34s0.07-1.37,0.07-1.37s0.58,1.06,0.73,1.44
					c0.14,0.38,0.14,1.5,0.14,1.5s0.11-1.12,0.98-1.67c0.87-0.55,1.88-1.13,2.13-1.44s0.33-0.51,0.33-0.51s-0.08,1.92-0.62,2.67
					c-0.36,0.49-1.77,2.09-1.77,2.09s0.73-0.28,1.23-0.3c0.51-0.04,0.87,0,0.87,0s-0.62,0.48-1.41,1.64
					c-0.8,1.16-0.47,1.26-1.05,2.22c-0.58,0.96-1.05,1-1.78,1.58c-1.08,0.87-0.5,4.34-0.36,4.86c0.15,0.51,2.03,4.76,2.07,5.79
					c0.03,1.03,0.21,3.33-1.6,4.8c-1.16,0.95-3.07,0.96-3.51,1.23c-0.43,0.28-1.29,1.13-1.29,2.91c0,1.79,0.64,2.06,1.15,2.51
					c0.51,0.44,1.16,0.2,1.3,0.55c0.15,0.34,0.22,0.54,0.44,0.75c0.21,0.2,0.36,0.44,0.29,0.82c-0.08,0.38-0.91,1.23-1.2,1.85
					c-0.29,0.61-0.87,2.23-0.87,2.47s-0.07,0.99,0.18,1.37c0,0,0.91,1.06,0.29,1.26c-0.4,0.14-0.78-0.25-0.97-0.2
					c-0.54,0.14-0.83,0.47-0.98,0.45c-0.36-0.07-0.36-0.25-0.4-0.76c-0.03-0.51-0.01-0.72-0.17-0.72c-0.22,0-0.33,0.18-0.37,0.45
					s-0.04,0.89-0.29,0.89s-0.61-0.45-0.83-0.55s-0.83-0.2-0.87-0.48c-0.03-0.27,0.36-0.85,0.76-0.96c0.4-0.1,0.76-0.3,0.51-0.51
					c-0.26-0.2-0.51-0.2-0.76,0c-0.25,0.21-0.79,0.04-0.76-0.27c0.04-0.31,0.11-0.69,0.07-0.86c-0.03-0.17-0.47-0.51,0.1-0.82
					c0.59-0.31,0.84,0.27,1.42,0.17s0.86-0.31,1.08-0.65s0.18-1.06-0.22-1.5c-0.39-0.45-0.79-0.52-0.94-0.8
					c-0.14-0.27-0.36-0.92-0.36-0.92s0.11,1.2,0.04,1.37s-0.04,0.89-0.04,0.89s-0.39-0.45-0.72-0.79c-0.32-0.34-0.65-1.37-0.65-1.37
					s-0.03,0.96-0.03,1.34c0,0.37,0.43,0.72,0.29,0.86c-0.15,0.13-0.83-0.72-1.02-0.86c-0.18-0.14-0.76-0.58-1.01-1.06
					s-0.44-1.16-0.51-1.41c-0.07-0.24-0.19-1.31-0.07-1.58c0.18-0.4,0.47-1.13,0.47-1.13h-1.41c-0.76,0-1.3-0.23-1.59,0.28
					s-0.15,1.54,0.21,2.88c0.37,1.33,0.58,1.98,0.48,2.22c-0.11,0.24-0.58,0.79-0.76,0.89c-0.19,0.11-0.69,0.07-0.91-0.03
					c-0.21-0.1-0.57-0.27-1.26-0.27s-1.12,0.03-1.37-0.03c-0.26-0.07-0.88-0.38-1.17-0.31s-0.79,0.32-0.65,0.72
					c0.22,0.61-0.21,0.75-0.51,0.72c-0.29-0.04-0.53-0.14-0.9-0.24c-0.36-0.11-0.9,0-0.83-0.42c0.07-0.41,0.22-0.44,0.4-0.74
					c0.18-0.32,0.25-0.52,0.04-0.54c-0.25-0.02-0.51-0.05-0.7,0.11c-0.2,0.16-0.51,0.51-0.76,0.38c-0.26-0.14-0.46-0.43-0.46-1.08
					c0-0.64-0.68-1.2-0.05-1.17c0.62,0.03,1.41,0.48,1.55,0.13s0.06-0.51-0.28-0.78s-0.76-0.43-0.31-0.77
					c0.45-0.35,0.56-0.35,0.74-0.54c0.17-0.18,0.41-0.79,0.73-0.64c0.62,0.3,0.02,0.73,0.65,1.42c0.62,0.69,1.01,0.94,2.06,0.83
					c1.04-0.11,1.33-0.24,1.33-0.54c0-0.29-0.09-0.82-0.12-1.04c-0.02-0.21,0.15-0.99,0.15-0.99s-0.48,0.3-0.63,0.59
					c-0.13,0.29-0.42,0.8-0.42,0.8s-0.11-0.6-0.08-1.09c0.02-0.29,0.12-0.79,0.11-0.89c-0.03-0.27-0.23-0.94-0.23-0.94
					s-0.16,0.73-0.28,0.94c-0.11,0.21-0.16,1.07-0.16,1.07s-0.67-0.58-0.48-1.55c0.13-0.75-0.12-1.74,0.11-2.06
					c0.22-0.33,0.75-1.64,2.06-1.69c1.3-0.05,2.31,0.05,2.77,0.03c0.45-0.03,2.06-0.33,2.06-0.33s-2.97-1.52-3.64-1.98
					c-0.68-0.45-1.73-1.63-2.07-2.16c-0.34-0.54-0.65-1.58-0.65-1.58s-0.53,0.02-1.02,0.29c-0.48,0.27-0.96,0.67-1.24,0.99
					s-0.73,1.05-0.73,1.05s0.08-0.94,0.08-1.23s-0.06-0.86-0.06-0.86s-0.33,1.28-1.01,1.76c-0.68,0.49-1.47,1.15-1.47,1.15
					s0.08-0.71,0.08-0.88c0-0.16,0.17-0.99,0.17-0.99s-0.48,0.72-1.21,0.86c-0.74,0.13-1.81,0.11-1.9,0.56
					c-0.08,0.45,0.2,1.07,0.03,1.39c-0.17,0.32-0.54,0.54-0.54,0.54s-0.42-0.35-0.79-0.38c-0.36-0.03-0.71,0.16-0.71,0.16
					s-0.31-0.4-0.19-0.67c0.11-0.26,0.67-0.66,0.54-0.83c-0.15-0.16-0.6,0.06-0.88,0.19c-0.28,0.14-0.88,0.27-0.82-0.19
					c0.05-0.45,0.2-0.72,0.05-1.04c-0.14-0.32-0.05-0.53,0.18-0.61c0.22-0.08,1.12,0.02,1.21-0.19c0.08-0.21-0.22-0.48-0.82-0.61
					c-0.59-0.14-0.88-0.49-0.57-0.78c0.32-0.3,0.4-0.38,0.54-0.64c0.14-0.27,0.2-0.76,0.74-0.51c0.53,0.24,0.42,0.83,0.99,1.01
					c0.56,0.19,1.89-0.08,2.17-0.24c0.28-0.16,1.19-0.83,1.5-0.99c0.31-0.15,1.61-1.12,1.61-1.12s-0.76-0.53-1.05-0.8
					c-0.28-0.27-0.78-0.91-1.04-1.05c-0.25-0.13-1.5-0.61-1.92-0.64c-0.42-0.02-1.72-0.48-1.72-0.48s0.59-0.19,0.79-0.35
					c0.19-0.16,0.64-0.56,0.87-0.53c0.22,0.02,0.28,0.02,0.28,0.02s-1.21-0.05-1.47-0.13c-0.25-0.08-0.99-0.54-1.27-0.54
					s-0.84,0.11-0.84,0.11s0.76-0.48,1.38-0.59c0.62-0.1,1.1-0.08,1.1-0.08s-0.96-0.27-1.19-0.58c-0.22-0.33-0.45-0.8-0.62-1.02
					c-0.17-0.21-0.28-0.56-0.59-0.59s-0.85,0.38-1.16,0.35s-0.54-0.22-0.57-0.67c-0.02-0.46,0-0.3-0.1-0.54
					c-0.12-0.24-0.57-0.8-0.15-0.93c0.43-0.14,1.33,0.08,1.42-0.08c0.08-0.16-0.48-0.65-0.85-0.83c-0.37-0.19-0.96-0.51-0.65-0.78
					c0.31-0.26,0.62-0.37,0.79-0.61c0.17-0.24,0.37-0.91,0.74-0.7c0.36,0.21,0.87,1.26,1.16,1.18c0.28-0.08,0.3-0.83,0.25-1.15
					c-0.06-0.32,0-0.88,0.28-0.83c0.28,0.05,0.51,0.43,0.96,0.46c0.45,0.02,1.13-0.11,1.07,0.21c-0.05,0.32-0.31,0.71-0.62,1.06
					c-0.3,0.36-0.45,1.05-0.25,1.5c0.2,0.46,0.71,1.19,1.16,1.48s1.3,0.51,1.84,0.85c0.53,0.35,1.78,1.34,2.2,1.45
					c0.42,0.11,0.85,0.32,0.85,0.32s0.48-0.21,1.13-0.21s2.14,0.1,2.71-0.14c0.57-0.24,1.3-0.64,1.08-1.15
					c-0.23-0.51-1.47-0.96-1.36-1.36s0.57-0.43,1.33-0.46c0.76-0.02,1.8,0.14,2-0.94c0.2-1.06,0.26-1.68-0.81-1.92
					c-1.08-0.24-1.87-0.27-2.07-1.04c-0.2-0.78-0.39-0.97-0.17-1.18c0.23-0.21,0.62-0.32,1.41-0.37c0.8-0.06,1.7-0.06,1.96-0.25
					c0.25-0.18,0.3-0.69,0.61-0.91c0.31-0.21,1.53-0.4,1.53-0.4s1.46,0.71,2.8,1.71c1.21,0.9,2.3,2.23,2.3,2.23"/>
				<path class="st31" d="M165,274.39c0,0-0.8,0.23-1.1,0.67c-0.37,0.53-0.34,1.07-0.34,1.07s0.68-0.56,1.56-0.33
					c0.87,0.24,0.96,0.33,1.33,0.3s1.27-0.35,1.27-0.35s-0.74,0.86-0.65,1.45c0.08,0.58,0.19,0.85,0.17,1.15
					c-0.06,0.72-0.6,1.61-0.6,1.61s0.31-0.19,1.05-0.35c0.73-0.16,1.36-0.51,1.75-0.81c0.39-0.29,0.9-1.02,0.9-1.02s-0.16,1,0,1.42
					c0.17,0.44,0.23,1.67,0.23,1.67s0.47-0.42,0.85-0.62c0.19-0.11,0.7-0.38,0.9-0.7c0.14-0.22,0.32-1.06,0.32-1.06
					s0.11,0.9,0.39,1.34c0.28,0.42,0.7,1.74,0.7,1.74s0.29-0.86,0.6-1.21s0.68-0.8,0.7-1.07c0.03-0.27-0.08-0.85-0.08-0.85
					l0.39,0.85 M163.93,279.9c0,0,0.48-0.83,0.93-1.1c0.46-0.26,1.08-0.74,1.25-0.8c0.16-0.05,0.9-0.46,0.9-0.46 M168,282.71
					c0,0,1.09-0.55,1.41-0.75c0.68-0.4,1.16-1.12,1.16-1.12"/>
				<path class="st6" d="M178.57,271.9c0,0-0.34-0.48-0.42-0.65c-0.09-0.15-0.23-0.48-0.23-0.48"/>
				<path class="st31" d="M174.33,288.41c0,0,2.04,1.26,1.98,2.31c-0.06,1.04-1.13,2.41-1.13,2.41"/>
			</g>
			<path class="st66" d="M169.05,267.24c0,0-0.17-0.48-0.2-0.62c-0.03-0.13-0.12-0.29-0.12-0.29s0.88,0,0.85,0.27
				c-0.02,0.27-0.28,0.27-0.34,0.37C169.19,267.08,169.05,267.24,169.05,267.24L169.05,267.24z"/>
			<path class="st67" d="M173.06,265.85l-0.06-0.43c0,0,0.77,0,1.13,0.26c0.57,0.4,0.93,1.02,0.91,1.05
				c-0.1,0.09-0.54-0.27-0.85-0.37c0,0-0.23,0.05-0.45,0.05c-0.23,0-0.34-0.11-0.37-0.21c-0.03-0.12,0.03-0.3,0.03-0.3
				L173.06,265.85z"/>
			<g>
				<path class="st66" d="M169.08,271.14l0.33-0.53l0.34,0.49L169.08,271.14"/>
				<path class="st66" d="M169.89,271.12l0.4-0.53l0.43,0.48L169.89,271.12"/>
				<path class="st66" d="M169.53,267.83l0.82,0.29l-0.74,0.38L169.53,267.83"/>
				<path class="st66" d="M170.52,268.1l0.73,0.18l-0.59,0.46L170.52,268.1"/>
			</g>
			<g>
				<path class="st64" d="M157.88,267.08c0,0,0.48,0.34,0.85,0.4c0.37,0.05,0.76,0.05,0.82,0.05c0.05,0,0.17-0.54,0.11-0.91
					c-0.2-1.2-1.3-1.47-1.3-1.47s0.33,0.73,0.17,1.07C158.3,266.7,157.88,267.08,157.88,267.08L157.88,267.08z"/>
				<path class="st64" d="M155.59,268.12c0,0-0.43-0.77-1.33-0.67c-0.9,0.11-1.5,0.81-1.5,0.81s1-0.03,1.25,0.13
					c0.37,0.24,0.48,0.86,0.48,0.86s0.54-0.32,0.71-0.54C155.36,268.5,155.59,268.12,155.59,268.12L155.59,268.12z"/>
				<path class="st64" d="M154.49,271.25c0,0-0.77,0.11-1.19,0.59c-0.43,0.49-0.36,1.4-0.36,1.4s0.5-0.54,0.95-0.54
					c0.46,0,1.16,0.16,1.16,0.16s-0.22-0.56-0.22-0.8S154.49,271.25,154.49,271.25L154.49,271.25z"/>
				<path class="st64" d="M157.06,281.37c0,0-0.42-0.45-1.16-0.32c-0.74,0.14-1.22,0.97-1.22,0.97s0.63-0.17,1-0.08
					c0.36,0.08,0.62,0.45,0.62,0.45s0.34-0.29,0.45-0.45C156.86,281.78,157.06,281.37,157.06,281.37L157.06,281.37z"/>
				<path class="st64" d="M156.21,284.34c0,0-0.62-0.1-1.16,0.33c-0.53,0.43-0.56,1.25-0.56,1.25s0.51-0.43,0.91-0.37
					c0.39,0.05,0.87,0.27,0.87,0.27s0.08-0.51,0.11-0.64C156.47,284.8,156.21,284.34,156.21,284.34L156.21,284.34z"/>
				<path class="st64" d="M157.66,287.08c0,0-0.05,0.79,0.33,1.28c0.4,0.51,1.13,0.59,1.13,0.59s-0.24-0.53-0.28-0.8
					c-0.06-0.4,0.34-0.75,0.34-0.75s-0.37-0.38-0.73-0.38C158.08,287.02,157.66,287.08,157.66,287.08L157.66,287.08z"/>
				<path class="st64" d="M165,294.12c0,0-0.51-0.64-1.21-0.62c-0.71,0.03-1.45,0.69-1.45,0.69s0.88-0.07,1.11,0.22
					c0.23,0.3,0.45,0.67,0.45,0.67s0.4-0.21,0.57-0.35C164.64,294.6,165,294.12,165,294.12L165,294.12z"/>
				<path class="st64" d="M162.83,296.93c0,0-0.93-0.14-1.39,0.35c-0.45,0.48-0.42,1.36-0.42,1.36s0.56-0.61,1.07-0.56
					s1.08,0.32,1.08,0.32s-0.09-0.53-0.15-0.78C162.97,297.38,162.83,296.93,162.83,296.93L162.83,296.93z"/>
				<path class="st64" d="M164.84,299.9c0,0-0.46,0.64-0.12,1.15s1.05,0.75,1.05,0.75s-0.26-0.37-0.14-0.8
					c0.09-0.34,0.67-0.8,0.67-0.8L164.84,299.9L164.84,299.9z"/>
				<path class="st64" d="M177.24,301.11c0,0-0.81-0.19-1.27,0.08c-0.45,0.26-0.82,1.39-0.82,1.39s0.74-0.62,1.28-0.54
					c0.53,0.08,0.93,0.3,0.93,0.3s0.08-0.46,0.02-0.78C177.35,301.37,177.24,301.11,177.24,301.11L177.24,301.11z"/>
				<path class="st64" d="M177.64,304.1c0,0-0.62,0.64-0.4,1.18c0.23,0.54,0.62,1.1,0.62,1.1s-0.02-0.8,0.23-1.02
					c0.37-0.32,1.05-0.37,1.05-0.37s-0.54-0.48-0.71-0.54C178.26,304.4,177.64,304.1,177.64,304.1z"/>
				<path class="st64" d="M180.75,305.04c0,0-0.31,0.78,0.28,1.28c0.59,0.52,1.11,0.57,1.11,0.57s-0.46-0.81-0.32-1.23
					c0.15-0.45,0.54-0.72,0.54-0.72s-0.74-0.25-0.85-0.22C181.4,304.74,180.75,305.04,180.75,305.04L180.75,305.04z"/>
			</g>
			<g>
				<path class="st3" d="M178.88,263.71l-0.29,0.02c-0.01,0.03-0.14,0.24-0.26,0.35c-0.26,0.25-0.65,0.28-0.86,0.07
					c-0.11-0.11-0.16-0.26-0.14-0.41c-0.17,0.09-0.35,0.09-0.51-0.01c-0.26-0.15-0.32-0.5-0.14-0.79c0.03-0.06,0.06-0.14,0.11-0.18
					l-0.02-0.32l-0.35,0.08l-0.1,0.19c-0.22,0.25-0.54,0.31-0.7,0.17c-0.08-0.07-0.14-0.26-0.13-0.27c0,0.01-0.09,0.09-0.17,0.11
					c-0.54,0.13-0.75-1.05-0.77-1.35l-0.17,0.25c0,0,0.16,0.7,0.08,1.3c-0.08,0.59-0.29,1.19-0.29,1.19
					c0.74,0.19,1.86,0.8,2.97,1.65c1.11,0.85,1.98,1.78,2.34,2.42c0,0,0.58-0.32,1.18-0.51c0.6-0.19,1.36-0.2,1.36-0.2l0.22-0.21
					c-0.32,0.05-1.58,0.1-1.56-0.43c0-0.08,0.07-0.18,0.08-0.18c-0.01,0.01-0.21-0.01-0.3-0.06c-0.18-0.13-0.18-0.43,0.02-0.69
					l0.18-0.13l0.01-0.34l-0.34,0.05c-0.03,0.04-0.11,0.09-0.15,0.13c-0.27,0.23-0.65,0.25-0.86,0.03
					c-0.13-0.12-0.17-0.29-0.11-0.46c-0.16,0.04-0.32,0.03-0.45-0.05c-0.26-0.15-0.31-0.52-0.11-0.8c0.09-0.14,0.28-0.31,0.31-0.32
					l-0.07-0.3H178.88L178.88,263.71z"/>
				<g>
					<path class="st67" d="M176.63,264.4c0.05-0.07,0.15-0.06,0.23,0s0.1,0.16,0.06,0.21c-0.05,0.06-0.15,0.06-0.24-0.01
						C176.61,264.55,176.58,264.45,176.63,264.4L176.63,264.4z"/>
					<path class="st67" d="M177.58,265.19l-0.33-0.25c-0.06-0.04-0.07-0.12-0.04-0.16c0.04-0.04,0.12-0.04,0.18,0l0.33,0.26
						l0.33,0.25c0.05,0.04,0.08,0.12,0.04,0.16c-0.04,0.04-0.12,0.04-0.18,0L177.58,265.19"/>
					<path class="st67" d="M175.84,264l-0.26-0.15c-0.07-0.04-0.1-0.12-0.07-0.17c0.03-0.05,0.11-0.06,0.17-0.02l0.26,0.16
						l0.26,0.15c0.06,0.03,0.09,0.11,0.07,0.16c-0.03,0.05-0.11,0.06-0.17,0.02L175.84,264"/>
					<path class="st67" d="M174.8,263.29c0.05-0.06,0.16-0.06,0.24,0c0.08,0.07,0.1,0.16,0.05,0.22c-0.05,0.05-0.15,0.05-0.23-0.01
						S174.76,263.35,174.8,263.29L174.8,263.29z"/>
					<path class="st67" d="M178.63,265.92c0.05-0.05,0.03-0.14-0.05-0.21c-0.08-0.06-0.19-0.06-0.24,0
						c-0.04,0.05-0.02,0.15,0.06,0.21C178.48,265.98,178.58,265.98,178.63,265.92L178.63,265.92z"/>
					<path class="st67" d="M179.2,266.58l0.22,0.21c0.05,0.05,0.13,0.07,0.18,0.03c0.04-0.04,0.04-0.11-0.01-0.16l-0.21-0.21
						l-0.22-0.21c-0.05-0.05-0.14-0.07-0.18-0.03c-0.05,0.03-0.04,0.11,0.01,0.16L179.2,266.58"/>
					<path class="st67" d="M180.15,267.39c0.05-0.06,0.03-0.15-0.05-0.21c-0.08-0.07-0.18-0.07-0.23-0.01
						c-0.05,0.06-0.03,0.15,0.05,0.22C180,267.44,180.1,267.45,180.15,267.39z"/>
				</g>
				<path class="st3" d="M177.4,261.36l-0.59,0.01l-0.11,0.87l0.06,0.14l0.15-0.01l0.76-0.51L177.4,261.36"/>
				<path class="st3" d="M177.4,261.36l-0.59,0.01l-0.11,0.87l0.06,0.14l0.15-0.01l0.76-0.51L177.4,261.36"/>
				<path class="st3" d="M175.8,261.84l-0.02,0.54l0.92,0.12l0.15-0.07l-0.02-0.15l-0.53-0.71L175.8,261.84"/>
				<path class="st3" d="M177.7,262.92l-0.49,0.27l-0.54-0.71l-0.01-0.15l0.14-0.06l0.93,0.11L177.7,262.92"/>
				<path class="st3" d="M176.51,262.25c0.08-0.13,0.26-0.17,0.39-0.09c0.14,0.07,0.18,0.24,0.1,0.37s-0.26,0.17-0.39,0.09
					C176.47,262.54,176.43,262.38,176.51,262.25z"/>
				<path class="st3" d="M174.36,261.35c-0.02,0.01-0.13-0.46-0.26-0.71c-0.08-0.19-0.39-0.43-0.39-0.43
					c0.03-0.05,0.42-0.19,0.87,0.09c0.38,0.31-0.03,0.87-0.03,0.87S174.46,261.31,174.36,261.35L174.36,261.35z"/>
				<path class="st3" d="M175.39,261.66l-0.42,0.37l-0.68-0.6l0.06-0.08l0.03-0.15l0.92-0.07L175.39,261.66"/>
				<path class="st3" d="M174.24,261.29c0.05-0.15,0.18-0.23,0.28-0.2c0.11,0.04,0.15,0.18,0.1,0.33c-0.05,0.15-0.18,0.23-0.29,0.2
					C174.22,261.58,174.18,261.44,174.24,261.29z"/>
				<path class="st3" d="M179.67,262.77l-0.59-0.06l-0.25,0.85l0.05,0.14l0.15,0.01l0.83-0.41L179.67,262.77"/>
				<path class="st3" d="M178.01,263.03l-0.1,0.54l0.9,0.23l0.15-0.04l0.01-0.14l-0.43-0.79L178.01,263.03"/>
				<path class="st3" d="M179.73,264.36l-0.53,0.2l-0.42-0.78l0.01-0.15l0.15-0.03l0.89,0.23L179.73,264.36"/>
				<path class="st3" d="M178.65,263.54c0.1-0.12,0.28-0.13,0.4-0.04c0.13,0.09,0.15,0.26,0.05,0.38s-0.28,0.13-0.41,0.04
					C178.57,263.83,178.55,263.66,178.65,263.54L178.65,263.54z"/>
				<path class="st3" d="M181.64,264.61l0.11,0.55l-0.87,0.3l-0.16-0.04l-0.01-0.14l0.36-0.81L181.64,264.61"/>
				<path class="st3" d="M181.49,266.2l-0.56,0.13l-0.31-0.83l0.04-0.15l0.15-0.02l0.85,0.35L181.49,266.2"/>
				<path class="st3" d="M179.97,264.66l-0.18,0.52l0.85,0.34l0.16-0.02l0.03-0.14l-0.3-0.83L179.97,264.66"/>
				<path class="st3" d="M180.91,265.63c0.12-0.11,0.12-0.28,0.02-0.39c-0.11-0.11-0.29-0.11-0.41-0.02
					c-0.11,0.11-0.12,0.28-0.01,0.39C180.61,265.72,180.8,265.73,180.91,265.63L180.91,265.63z"/>
				<path class="st3" d="M182.29,267.43c0,0.01,0.5,0.03,0.79,0.09c0.2,0.04,0.52,0.27,0.52,0.27c0.06-0.04,0.12-0.42-0.28-0.79
					c-0.39-0.28-0.88,0.22-0.88,0.22S182.32,267.34,182.29,267.43L182.29,267.43z"/>
				<path class="st3" d="M181.75,266.54l-0.29,0.46l0.76,0.51l0.09-0.08l0.13-0.04l-0.12-0.88L181.75,266.54"/>
				<path class="st3" d="M182.37,267.53c0.14-0.07,0.21-0.22,0.15-0.31s-0.22-0.1-0.36-0.02c-0.14,0.08-0.2,0.22-0.14,0.31
					C182.07,267.6,182.23,267.61,182.37,267.53z"/>
			</g>
		</g>
		<g id="inescutcheon">
			<ellipse class="st68" cx="146.43" cy="312.01" rx="16.26" ry="18.3"/>
			<ellipse class="st69" cx="146.44" cy="311.97" rx="11.44" ry="13.42"/>
			<g id="fdl">
				<path class="st70" d="M141.03,302.74c0,0-1.35,1.48-1.35,2.86c0,1.39,0.57,2.54,0.57,2.54c-0.21-0.55-0.76-0.94-1.41-0.94
					c-0.83,0-1.5,0.63-1.5,1.42c0,0.22,0.14,0.58,0.24,0.77l0.49,0.99c0.16-0.37,0.54-0.57,0.98-0.57c0.59,0,1.08,0.45,1.08,1.01
					c0,0.09-0.01,0.17-0.04,0.25l-1.22,0.01v1.03h1.09l-0.81,1.61l1.07-0.42l0.81,0.91l0.84-0.91l1.07,0.42l-0.8-1.61h1.08v-1.03
					l-1.22-0.01c-0.02-0.08-0.02-0.16-0.02-0.25c0-0.56,0.47-1.01,1.06-1.01c0.44,0,0.82,0.2,0.98,0.57l0.49-0.99
					c0.1-0.19,0.24-0.55,0.24-0.77c0-0.79-0.67-1.42-1.49-1.42c-0.66,0-1.21,0.39-1.41,0.94c0,0,0.57-1.15,0.57-2.54
					C142.42,304.22,141.03,302.74,141.03,302.74L141.03,302.74z"/>
				<path class="st71" d="M138.87,312.11h4.36v-1.03h-4.36V312.11z"/>
			</g>
			<g>
				<g id="fdl_1_">
					<path class="st70" d="M151.66,302.74c0,0-1.35,1.48-1.35,2.86c0,1.39,0.57,2.54,0.57,2.54c-0.21-0.55-0.76-0.94-1.41-0.94
						c-0.83,0-1.5,0.63-1.5,1.42c0,0.22,0.14,0.58,0.24,0.77l0.49,0.99c0.16-0.37,0.54-0.57,0.98-0.57c0.59,0,1.08,0.45,1.08,1.01
						c0,0.09-0.01,0.17-0.04,0.25l-1.22,0.01v1.03h1.09l-0.81,1.61l1.07-0.42l0.81,0.91l0.84-0.91l1.07,0.42l-0.8-1.61h1.08v-1.03
						l-1.22-0.01c-0.02-0.08-0.02-0.16-0.02-0.25c0-0.56,0.47-1.01,1.06-1.01c0.44,0,0.82,0.2,0.98,0.57l0.49-0.99
						c0.1-0.19,0.24-0.55,0.24-0.77c0-0.79-0.67-1.42-1.49-1.42c-0.66,0-1.21,0.39-1.41,0.94c0,0,0.57-1.15,0.57-2.54
						C153.05,304.22,151.66,302.74,151.66,302.74L151.66,302.74z"/>
					<path class="st71" d="M149.5,312.11h4.36v-1.03h-4.36V312.11z"/>
				</g>
			</g>
			<g>
				<g id="fdl_2_">
					<path class="st70" d="M146.34,311.88c0,0-1.35,1.48-1.35,2.86c0,1.39,0.57,2.54,0.57,2.54c-0.21-0.55-0.76-0.94-1.41-0.94
						c-0.83,0-1.5,0.63-1.5,1.42c0,0.22,0.14,0.58,0.24,0.77l0.49,0.99c0.16-0.37,0.54-0.57,0.98-0.57c0.59,0,1.08,0.45,1.08,1.01
						c0,0.09-0.01,0.17-0.04,0.25l-1.22,0.01v1.03h1.09l-0.81,1.61l1.07-0.42l0.81,0.91l0.84-0.91l1.07,0.42l-0.8-1.61h1.08v-1.03
						l-1.22-0.01c-0.02-0.08-0.02-0.16-0.02-0.25c0-0.56,0.47-1.01,1.06-1.01c0.44,0,0.82,0.2,0.98,0.57l0.49-0.99
						c0.1-0.19,0.24-0.55,0.24-0.77c0-0.79-0.67-1.42-1.49-1.42c-0.66,0-1.21,0.39-1.41,0.94c0,0,0.57-1.15,0.57-2.54
						C147.73,313.36,146.34,311.88,146.34,311.88L146.34,311.88z"/>
					<path class="st71" d="M144.18,321.25h4.36v-1.03h-4.36V321.25z"/>
				</g>
			</g>
		</g>
	</g>
</g>
</svg>
